<?xml version="1.0" standalone="no"?><!DOCTYPE svg PUBLIC "-//W3C//DTD SVG 1.1//EN" "http://www.w3.org/Graphics/SVG/1.1/DTD/svg11.dtd"><svg t="1592193913391" class="icon" viewBox="0 0 1024 1024" version="1.1" xmlns="http://www.w3.org/2000/svg" p-id="1671" xmlns:xlink="http://www.w3.org/1999/xlink" width="2300" height="2300"><defs><style type="text/css"></style></defs><path d="M512 103.5c1.3 0 2.5 0.2 3.7 0.7L849.6 232c3.8 1.4 6.4 4.8 6.5 8.2l-7.9 272.2v1.2c0 23.1-3.3 47.5-9.8 72.6-6.4 24.6-15.7 49.4-27.6 73.5-23.7 47.8-56.7 90.6-92.9 120.4-17.7 14.6-134.5 93.2-205.7 140.5-77.5-52.2-190.2-129-202.7-139.6C230.9 711.3 182 608.8 182 513.5c0-0.7 0-1.4-0.1-2.1l-14-271.6c0.2-3.4 2.8-6.6 6.5-8L508.3 104c1.2-0.2 2.5-0.5 3.7-0.5m0-40c-6.1 0-12.2 1.1-18 3.3L160.1 194.7c-18.5 7.1-31.5 24.3-32.2 44.1v1.9l14 273c0 108.3 54.9 221.2 141 297.5 16.7 14.8 209.2 144.4 209.2 144.4 6 4.1 13 6.1 19.9 6.1 6.9 0 13.8-2 19.8-6 0 0 185.2-123 211.3-144.5C825.4 743.4 888 622.1 888 513.8l8-273v-1.9c-0.8-19.8-13.7-37-32.2-44.1L530 66.8c-5.8-2.2-11.9-3.3-18-3.3z" fill="#1296db" p-id="1672"></path><path d="M700 365.5H324c-10.2 0-18.5-8.3-18.5-18.5v-3.8c0-10.2 8.3-18.5 18.5-18.5h376c10.2 0 18.5 8.3 18.5 18.5v3.8c0 10.2-8.3 18.5-18.5 18.5z" fill="#1296db" p-id="1673"></path><path d="M536 363.2v322.3c0 9.9-8.1 18.1-18.1 18.1h-8.8c-9.9 0-18.1-8.1-18.1-18.1V363.2c0-9.9 8.1-18.1 18.1-18.1h8.8c10 0.1 18.1 8.2 18.1 18.1z" fill="#1296db" p-id="1674"></path></svg>