<?xml version="1.0" standalone="no"?><!DOCTYPE svg PUBLIC "-//W3C//DTD SVG 1.1//EN" "http://www.w3.org/Graphics/SVG/1.1/DTD/svg11.dtd"><svg t="1650284126338" class="icon" viewBox="0 0 1031 1024" version="1.1" xmlns="http://www.w3.org/2000/svg" p-id="2588" xmlns:xlink="http://www.w3.org/1999/xlink" width="201.3671875" height="200"><defs><style type="text/css">@font-face { font-family: feedback-iconfont; src: url("//at.alicdn.com/t/font_1031158_u69w8yhxdu.woff2?t=1630033759944") format("woff2"), url("//at.alicdn.com/t/font_1031158_u69w8yhxdu.woff?t=1630033759944") format("woff"), url("//at.alicdn.com/t/font_1031158_u69w8yhxdu.ttf?t=1630033759944") format("truetype"); }
</style></defs><path d="M165.094651 213.425468a270.310413 270.310413 0 0 0-32.077976 105.215762 213.853175 213.853175 0 0 0 51.324762 172.194577l65.695695 69.37397a68.433016 68.433016 0 0 0 47.732029 21.299776h1.796366a68.433016 68.433016 0 0 0 46.962157-18.733538l32.933389-31.222564 44.823626 45.935662-29.853903 28.228619a68.433016 68.433016 0 0 0-2.566239 96.576094l65.695696 69.37397a211.030313 211.030313 0 0 0 156.027276 60.392136 260.729791 260.729791 0 0 0 137.892527-37.552617l216.761578 216.761578a34.216508 34.216508 0 1 0 48.330818-48.330818L797.672342 744.209048A270.310413 270.310413 0 0 0 829.750318 638.993286a215.392918 215.392918 0 0 0-51.153679-172.194576l-65.695696-69.37397a68.433016 68.433016 0 0 0-47.732028-21.299776h-1.796367a68.433016 68.433016 0 0 0-46.962157 18.733538l-33.532178 31.821352-44.823625-45.764579 30.709316-29.084032a68.433016 68.433016 0 0 0 2.480696-96.233929l-65.695695-69.373969a211.030313 211.030313 0 0 0-156.027276-60.392137 260.729791 260.729791 0 0 0-138.149151 37.210452L58.339146 10.008329a34.216508 34.216508 0 0 0-48.330817 48.330817z m498.277897 230.961429l65.695695 69.37397a180.919786 180.919786 0 0 1-5.987889 216.590495 175.616227 175.616227 0 0 1-110.091614 33.275554 144.564746 144.564746 0 0 1-106.41334-38.750195l-65.695695-69.37397z m-122.409557 21.898565l-75.532941 71.598043-44.823626-45.935662 75.704024-71.512501zM239.686638 227.283154a174.675273 174.675273 0 0 1 109.74945-33.275554 144.564746 144.564746 0 0 1 106.413339 39.006819l66.123402 69.37397-222.407302 210.688148-65.952319-69.288429a180.834245 180.834245 0 0 1 6.07343-216.504954z" p-id="2589"></path></svg>