<?xml version="1.0" standalone="no"?><!DOCTYPE svg PUBLIC "-//W3C//DTD SVG 1.1//EN" "http://www.w3.org/Graphics/SVG/1.1/DTD/svg11.dtd"><svg t="1592916273755" class="icon" viewBox="0 0 1024 1024" version="1.1" xmlns="http://www.w3.org/2000/svg" p-id="1859" xmlns:xlink="http://www.w3.org/1999/xlink" width="2300" height="2300"><defs><style type="text/css"></style></defs><path d="M154.737778 750.933333V603.022222c67.015111 54.272 191.715556 91.022222 334.506666 91.022222v-52.337777c-204.231111 0-334.506667-76.8-334.506666-129.706667V364.088889c67.015111 54.272 191.715556 91.022222 334.506666 91.022222s267.491556-36.408889 334.506667-91.022222v138.808889H876.088889V273.066667c0-100.579556-173.169778-182.044444-386.844445-182.044445S102.4 172.487111 102.4 273.066667v477.866666c0 100.579556 173.169778 182.044444 386.844444 182.044445v-52.337778c-204.231111 0-334.506667-76.8-334.506666-129.706667zM489.244444 143.36c204.8 0 334.506667 76.8 334.506667 129.706667S694.044444 402.773333 489.244444 402.773333 154.737778 325.973333 154.737778 273.066667 285.013333 143.36 489.244444 143.36zM557.511111 864.711111h364.088889v45.511111H557.511111z" fill="#1296db" p-id="1860"></path><path d="M557.511111 728.177778h364.088889v45.511111H557.511111zM557.511111 591.644444h364.088889v45.511112H557.511111z" fill="#1296db" p-id="1861"></path><path d="M638.179556 568.888889h113.777777v91.022222h-113.777777zM777.671111 705.422222h113.777778v91.022222h-113.777778zM641.137778 841.955556h113.777778v91.022222h-113.777778z" fill="#1296db" p-id="1862"></path></svg>