<?xml version="1.0" standalone="no"?><!DOCTYPE svg PUBLIC "-//W3C//DTD SVG 1.1//EN" "http://www.w3.org/Graphics/SVG/1.1/DTD/svg11.dtd"><svg t="1650640009175" class="icon" viewBox="0 0 1024 1024" version="1.1" xmlns="http://www.w3.org/2000/svg" p-id="1821" xmlns:xlink="http://www.w3.org/1999/xlink" width="200" height="200"><defs><style type="text/css">@font-face { font-family: feedback-iconfont; src: url("//at.alicdn.com/t/font_1031158_u69w8yhxdu.woff2?t=1630033759944") format("woff2"), url("//at.alicdn.com/t/font_1031158_u69w8yhxdu.woff?t=1630033759944") format("woff"), url("//at.alicdn.com/t/font_1031158_u69w8yhxdu.ttf?t=1630033759944") format("truetype"); }
</style></defs><path d="M41.128791 802.545934a22.505495 22.505495 0 0 1-22.505494-22.505494V90.021978a90.021978 90.021978 0 0 1 90.021978-90.021978h815.936703a90.021978 90.021978 0 0 1 90.021978 90.021978v583.117363a22.505495 22.505495 0 1 1-45.010989 0V90.021978a45.010989 45.010989 0 0 0-45.010989-45.010989H108.645275a45.010989 45.010989 0 0 0-45.010989 45.010989v690.018462a22.505495 22.505495 0 0 1-22.505495 22.505494zM992.098462 859.822418H147.242198a22.505495 22.505495 0 0 1 0-45.010989h844.856264a22.505495 22.505495 0 1 1 0 45.010989z" fill="#3A77D9" p-id="1822"></path><path d="M992.098462 1024H196.079121a186.683077 186.683077 0 1 1 0-373.366154h796.019341a22.505495 22.505495 0 1 1 0 45.010989H196.079121a141.672088 141.672088 0 1 0 0 283.344176h796.019341a22.505495 22.505495 0 0 1 0 45.010989zM514.644396 485.668571L400.991648 363.351209l-93.172747 105.213187a22.505495 22.505495 0 0 1-33.758242-29.819781l126.143297-142.45978 116.240879 125.243077 223.592088-214.814945a22.505495 22.505495 0 0 1 31.17011 32.407912z" fill="#3A77D9" p-id="1823"></path></svg>