<?xml version="1.0" standalone="no"?><!DOCTYPE svg PUBLIC "-//W3C//DTD SVG 1.1//EN" "http://www.w3.org/Graphics/SVG/1.1/DTD/svg11.dtd"><svg t="1650723174177" class="icon" viewBox="0 0 1024 1024" version="1.1" xmlns="http://www.w3.org/2000/svg" p-id="2049" xmlns:xlink="http://www.w3.org/1999/xlink" width="200" height="200"><defs><style type="text/css">@font-face { font-family: feedback-iconfont; src: url("//at.alicdn.com/t/font_1031158_u69w8yhxdu.woff2?t=1630033759944") format("woff2"), url("//at.alicdn.com/t/font_1031158_u69w8yhxdu.woff?t=1630033759944") format("woff"), url("//at.alicdn.com/t/font_1031158_u69w8yhxdu.ttf?t=1630033759944") format("truetype"); }
</style></defs><path d="M618.7 298.7H320c-11.7 0-21.3-9.6-21.3-21.3 0-11.7 9.6-21.3 21.3-21.3h298.7c11.7 0 21.3 9.6 21.3 21.3 0 11.7-9.6 21.3-21.3 21.3zM533.3 426.7H320c-11.7 0-21.3-9.6-21.3-21.3 0-11.7 9.6-21.3 21.3-21.3h213.3c11.7 0 21.3 9.6 21.3 21.3 0.1 11.7-9.5 21.3-21.3 21.3zM448 554.7H320c-11.7 0-21.3-9.6-21.3-21.3 0-11.7 9.6-21.3 21.3-21.3h128c11.7 0 21.3 9.6 21.3 21.3 0 11.7-9.6 21.3-21.3 21.3z" fill="#CEE8FF" p-id="2050"></path><path d="M785.7 231l-78-78c-16-16-37.7-25-60.3-25H298.7c-46.9 0-85.3 38.4-85.3 85.3v597.3c0 46.9 38.4 85.3 85.3 85.3H448c11.7 0 21.3-9.6 21.3-21.3 0-11.7-9.6-21.3-21.3-21.3H298.7c-23.5 0-42.7-19.1-42.7-42.7V213.3c0-23.5 19.1-42.7 42.7-42.7h348.7c11.4 0 22.1 4.4 30.2 12.5l78 78c8.1 8.1 12.5 18.8 12.5 30.2v263.3-21.3c0 11.7 9.6 21.3 21.3 21.3s21.3-9.6 21.3-21.3v21.3-263.3c0-22.6-9-44.3-25-60.3z" fill="#298DF7" p-id="2051"></path><path d="M778.7 885.3H565.3c-11.7 0-21.3-9.6-21.3-21.3V650.7c0-11.7 9.6-21.3 21.3-21.3h213.3c11.7 0 21.3 9.6 21.3 21.3V864c0.1 11.7-9.5 21.3-21.2 21.3z" fill="#CEE8FF" p-id="2052"></path><path d="M778.7 896H565.3c-17.6 0-32-14.4-32-32v-64c0-3.8 2-7.2 5.2-9.1l106.7-64c4.2-2.5 9.6-1.9 13 1.6l36.8 36.8 94.3-56.6v-58c0-5.9-4.8-10.7-10.7-10.7H565.3c-5.9 0-10.7 4.8-10.7 10.7v64c0 5.9-4.8 10.7-10.7 10.7s-10.7-4.8-10.7-10.7v-64c0-17.6 14.4-32 32-32h213.3c17.6 0 32 14.4 32 32v64c0 3.8-2 7.2-5.2 9.1l-106.7 64c-4.2 2.5-9.6 1.9-13-1.6L649 749.4 554.7 806v58c0 5.9 4.8 10.7 10.7 10.7h213.3c5.9 0 10.7-4.8 10.7-10.7v-64c0-5.9 4.8-10.7 10.7-10.7s10.7 4.8 10.7 10.7v64c-0.1 17.6-14.5 32-32.1 32z" fill="#298DF7" p-id="2053"></path></svg>