<?xml version="1.0" standalone="no"?><!DOCTYPE svg PUBLIC "-//W3C//DTD SVG 1.1//EN" "http://www.w3.org/Graphics/SVG/1.1/DTD/svg11.dtd"><svg t="1647705015516" class="icon" viewBox="0 0 1024 1024" version="1.1" xmlns="http://www.w3.org/2000/svg" p-id="5055" xmlns:xlink="http://www.w3.org/1999/xlink" width="200" height="200"><defs><style type="text/css"></style></defs><path d="M870.4 12.8H153.6A140.9024 140.9024 0 0 0 12.8 153.6v716.8A140.9024 140.9024 0 0 0 153.6 1011.2h504.32a38.4 38.4 0 0 0 0-76.8H153.6c-35.2768 0-64-28.7232-64-64V153.6c0-35.2768 28.7232-64 64-64h716.8c35.2768 0 64 28.7232 64 64v716.8c0 35.2768-28.7232 64-64 64h-11.4688a38.4 38.4 0 0 0 0 76.8H870.4A140.9024 140.9024 0 0 0 1011.2 870.4V153.6A140.9024 140.9024 0 0 0 870.4 12.8z" fill="#438CFF" p-id="5056"></path><path d="M243.5584 294.4h389.888a38.4 38.4 0 0 0 0-76.8H243.5584a38.4 38.4 0 0 0 0 76.8zM729.9584 473.6H242.8416a38.4 38.4 0 0 0 0 76.8h487.1168a38.4 38.4 0 0 0 0-76.8zM243.5584 729.6a38.4 38.4 0 0 0 0 76.8h192.9728a38.4 38.4 0 0 0 0-76.8H243.5584zM785.1008 217.6h-3.9424c-21.1968 0-36.4032 17.2032-36.4032 38.4s19.2 38.4 40.3968 38.4a38.4 38.4 0 1 0-0.0512-76.8z" fill="#438CFF" p-id="5057"></path></svg>