<?xml version="1.0" standalone="no"?><!DOCTYPE svg PUBLIC "-//W3C//DTD SVG 1.1//EN" "http://www.w3.org/Graphics/SVG/1.1/DTD/svg11.dtd"><svg t="1578759529131" class="icon" viewBox="0 0 1024 1024" version="1.1" xmlns="http://www.w3.org/2000/svg" p-id="3229" xmlns:xlink="http://www.w3.org/1999/xlink" width="200" height="200"><defs><style type="text/css"></style></defs><path d="M919.528972 105.271028c-140.361371-140.361371-363.663551-140.361371-497.64486 0C319.803115 207.352025 287.902804 354.093458 338.943302 481.694704L7.180062 813.457944c0 6.380062-6.380062 12.760125-6.380062 25.520249v153.121495c0 19.140187 12.760125 31.900312 31.900312 31.900312h165.881619c6.380062 0 19.140187-6.380062 25.52025-6.380062l70.180685-70.180686c6.380062-6.380062 6.380062-12.760125 6.380062-25.520249s-6.380062-19.140187-6.380062-25.520249v-6.380062c0-12.760125 12.760125-12.760125 19.140187-6.380063-6.380062 6.380062 6.380062 12.760125 12.760125 12.760125s19.140187-6.380062 25.520249-6.380062l57.420561-57.420561c6.380062-6.380062 6.380062-12.760125 6.380062-25.520249s-6.380062-19.140187-6.380062-25.52025v-6.380062c0-12.760125 12.760125-12.760125 19.140186-6.380062 12.760125 12.760125 31.900312 12.760125 44.660437 0l76.560747-76.560748c127.601246 44.660436 274.342679 19.140187 370.043614-82.94081 133.981308-140.361371 133.981308-363.663551 0-504.024922z m-44.660436 459.364486c-82.94081 82.94081-210.542056 108.461059-319.003115 57.420561-12.760125-6.380062-25.520249 0-38.280374 6.380062L441.024299 704.996885c-6.380062 0-19.140187-6.380062-25.520249-6.380063-38.280374 0-76.560748 31.900312-76.560748 76.560748 0 6.380062 0 19.140187 6.380062 25.520249l-25.520249 25.52025c-6.380062 0-19.140187-6.380062-25.520249-6.380063-38.280374 0-76.560748 31.900312-76.560748 76.560748 0 6.380062 0 19.140187 6.380063 25.520249l-38.280374 38.280374H64.600623v-108.461059L402.743925 513.595016c6.380062-6.380062 12.760125-25.520249 6.380063-38.280374-51.040498-108.461059-31.900312-236.062305 51.040498-325.383178C575.005607 35.090343 760.027414 35.090343 868.488474 149.931464c114.841121 114.841121 114.841121 299.862928 6.380062 414.70405z" fill="#14ADC4" p-id="3230"></path><path d="M702.606854 194.5919c-70.180685 0-127.601246 57.420561-127.601247 127.601246s57.420561 127.601246 127.601247 127.601247 127.601246-57.420561 127.601246-127.601247-57.420561-127.601246-127.601246-127.601246z m0 191.401869c-38.280374 0-63.800623-25.520249-63.800623-63.800623s25.520249-63.800623 63.800623-63.800623 63.800623 25.520249 63.800623 63.800623-25.520249 63.800623-63.800623 63.800623z" fill="#14ADC4" p-id="3231"></path></svg>