<?xml version="1.0" standalone="no"?><!DOCTYPE svg PUBLIC "-//W3C//DTD SVG 1.1//EN" "http://www.w3.org/Graphics/SVG/1.1/DTD/svg11.dtd"><svg t="1583854897950" class="icon" viewBox="0 0 1024 1024" version="1.1" xmlns="http://www.w3.org/2000/svg" p-id="1163" xmlns:xlink="http://www.w3.org/1999/xlink" width="200" height="200"><defs><style type="text/css"></style></defs><path d="M990.930764 623.116113h-2.794151c-44.2049 0-79.556537-37.982029-79.556537-84.34651 0-15.291067 6.98026-32.055973 6.980259-32.055973 6.98026-16.283861 1.402193-36.006677-12.097752-46.364481l-0.931383-0.491279-76.762387-45.381923-0.931383-0.491279a38.278843 38.278843 0 0 0-14.891903-2.957911 40.018791 40.018791 0 0 0-28.842188 12.333157c-9.303601 10.357805-39.077172 36.989235-62.801867 36.989235-24.185269 0-53.498266-27.132945-63.272676-37.49075a38.933882 38.933882 0 0 0-28.842187-12.824436c-5.117492 0-10.234985 0.982559-14.421094 2.957911l-0.931384 0.491279-79.546302 46.364482-1.402193 0.491279c-13.960519 10.357805-19.067777 29.599576-12.097752 46.364481 0 0 6.98026 16.764905 6.98026 32.547252 0 46.865996-35.822447 84.34651-79.556538 84.34651h-2.794151c-13.029136-0.491279-23.264121 11.841877-26.518845 30.090856-0.450339 1.484073-6.499215 36.508191-6.499216 63.630901 0 27.624224 6.048876 62.146828 6.509451 63.630901 3.254725 18.248978 13.48971 30.090855 26.048036 30.090855h3.26496c44.194665 0 79.556537 37.982029 79.556538 84.34651 0 15.291067-6.98026 32.066208-6.98026 32.557487-6.50945 16.273626-1.862767 35.515397 12.097752 46.364482l0.931384 0.491279 75.370428 44.389129 0.931384 0.491279a36.641246 36.641246 0 0 0 14.891903 2.957911 38.933882 38.933882 0 0 0 28.842187-12.824436c8.843027-10.357805 39.547981-38.964587 64.20406-38.964587s54.900459 28.606783 64.674869 39.947146c6.970025 8.392688 17.675819 12.824436 28.842188 13.315715 5.117492 0 9.774411-0.982559 14.421093-2.957911l0.931384-0.491279 78.154344-45.873202 0.931384-0.491279c13.960519-10.357805 19.078012-29.599576 12.097752-46.364482 0 0-6.98026-16.764905-6.98026-32.557487 0-46.855761 35.822447-84.34651 79.556538-84.34651h2.794151c13.029136 0.491279 23.264121-11.841877 26.518845-30.090855 0.460574-1.484073 6.50945-36.508191 6.509451-63.630901 0-27.624224-6.048876-62.648342-6.048876-64.12218-3.275195-18.730022-13.980989-30.5719-26.539316-30.070386z m-32.567722 144.517986c-55.831842 2.968146-100.026507 52.280303-100.026507 111.479455 0 19.722816 7.440834 38.964587 8.843027 42.915292l-66.066827 38.964587c-0.931384 0-1.862767-0.491279-2.323342-0.491279-1.391958-1.484073-10.695559-12.333157-24.656078-23.192476-20.46997-16.273626-40.008556-24.656079-58.155184-24.656078-18.136393 0-37.22464 7.891173-57.684375 24.164799a217.565073 217.565073 0 0 0-24.656078 22.690961c-0.460574 0-1.391958 0.491279-2.323342 0.49128l-63.733251-37.982029c1.402193-3.950704 8.843027-23.182241 8.843027-42.915292 0-59.680197-43.73409-108.511309-100.026507-111.479455-0.931384-4.431748-5.117492-31.073414-5.117492-50.806465s4.186109-45.873202 5.117492-50.806464c55.831842-2.957911 100.026507-52.280303 100.026507-111.479455 0-19.733051-7.440834-38.964587-8.843027-42.915292l67.458785-39.455867c0.931384 0 1.862767 0 2.323342 0.49128 7.440834 7.891173 15.352477 15.291067 24.195504 21.698168 20.009395 15.291067 39.547981 23.182241 56.752991 23.18224 17.215245 0 36.283021-7.399894 56.292417-22.690961 8.832792-6.417336 16.744435-13.806995 24.195504-21.206889 0.931384-0.491279 1.391958-0.491279 2.323342-0.491279h0.470809l65.135444 38.473308c-1.391958 3.950704-8.832792 23.182241-8.832792 42.915292 0 59.188917 43.723855 108.521544 100.026507 111.479455 0.931384 4.431748 5.117492 31.073414 5.117492 50.806464s-3.746004 46.384951-4.677388 50.8167z" fill="#1296db" p-id="1164"></path><path d="M717.380324 589.576068c-66.066827 0-120.035902 57.213565-120.035903 127.261801s53.498266 126.760287 120.035903 127.261802c66.056592 0 120.025667-57.213565 120.025667-127.261802S782.976342 589.576068 717.380324 589.576068z m0 191.865026c-33.499105 0-60.949335-29.098062-60.949335-64.61346s27.450229-64.613459 60.949335-64.613459c33.48887 0 60.9391 29.098062 60.939099 64.613459-0.460574 35.515397-27.910804 64.613459-60.939099 64.61346z" fill="#1296db" p-id="1165"></path><path d="M921.148637 0.624334H102.349849c-56.527821 0-102.349849 45.822027-102.349849 102.349849v614.099091c0 56.527821 45.822027 102.349849 102.349849 102.349849h173.994742a30.704955 30.704955 0 1 0 0-61.409909H102.349849a40.939939 40.939939 0 0 1-40.93994-40.93994v-614.099091a40.939939 40.939939 0 0 1 40.93994-40.93994h818.798788c22.578377 0 40.939939 18.361563 40.93994 40.93994v276.344591a30.704955 30.704955 0 1 0 61.409909 0v-276.344591c0-56.517586-45.822027-102.349849-102.349849-102.349849zM378.69444 962.088577H133.054803a30.704955 30.704955 0 1 0 0 61.409909h245.639637a30.704955 30.704955 0 1 0 0-61.409909z" fill="#1296db" p-id="1166"></path></svg>