<?xml version="1.0" standalone="no"?><!DOCTYPE svg PUBLIC "-//W3C//DTD SVG 1.1//EN" "http://www.w3.org/Graphics/SVG/1.1/DTD/svg11.dtd"><svg t="1592193498456" class="icon" viewBox="0 0 1024 1024" version="1.1" xmlns="http://www.w3.org/2000/svg" p-id="1177" xmlns:xlink="http://www.w3.org/1999/xlink" width="2300" height="2300"><defs><style type="text/css"></style></defs><path d="M479.544821 180.101891c-202.087625 0-365.936343 163.848719-365.936343 365.936343 0 202.070228 163.848719 365.931227 365.936343 365.931227 202.082508 0 365.931227-163.860998 365.931227-365.931227C845.476047 343.950609 681.627329 180.101891 479.544821 180.101891L479.544821 180.101891zM479.544821 887.573841c-188.329273 0-341.540723-153.211451-341.540723-341.535607 0-188.329273 153.211451-341.540723 341.540723-341.540723 188.324156 0 341.535607 153.211451 341.535607 341.540723C821.080427 734.36239 667.868977 887.573841 479.544821 887.573841L479.544821 887.573841zM479.544821 887.573841" p-id="1178" fill="#1296db"></path><path d="M538.220175 598.102007c-7.706519 0.312108-14.114462 2.00261-19.250436 3.350304-9.861602 2.606361-17.652032 4.668323-46.812165-50.378387l-3.489474-6.618744c-28.708855-54.17997-22.157649-60.731176-19.691481-63.205531 1.323135-1.323135 2.774183-2.562359 4.27742-3.860934 2.25025-1.966795 4.573155-4.013407 6.871501-6.300496l0.01228 0c2.298346-2.309602 4.564969-4.848425 6.695492-7.742335 15.141862-20.478404 6.359848-57.105602-0.228197-77.108169-6.655584-20.250206-17.995863-45.432749-34.244942-50.444902-10.400884-3.182482-42.775222-6.016017-67.565838 18.759249-9.4093 9.42465-16.521279 21.741163-21.093411 36.619012-18.536168 60.298318 13.770632 134.116557 47.815005 198.36893 34.06484 64.276932 77.031421 132.470057 137.246851 150.95813 41.559535 12.795421 67.326385-4.848425 78.978772-16.496719 9.325389-9.326413 14.806217-19.715017 16.664541-25.75457 4.001127-13.019525-3.529383-32.054043-22.408359-56.570413C589.122495 624.963795 563.699476 597.067444 538.220175 598.102007L538.220175 598.102007zM606.91779 692.862207c-1.082658 3.52529-5.204535 11.292184-12.115945 18.203594-7.110955 7.110955-19.510356 15.60542-38.153972 15.60542-7.062859 0-14.637372-1.243317-22.500457-3.657296-53.863768-16.548908-94.164636-81.084737-126.470413-142.052297-32.290427-60.930721-63.061244-130.507356-46.491871-184.418196 3.680832-11.972683 9.256828-21.753443 16.560164-29.069059 12.767791-12.766768 27.861558-15.433504 38.258349-15.433504 5.443989 0 9.485025 0.783853 11.008728 1.24741 3.621481 1.119497 13.007245 10.660804 22.217001 38.665625 9.05319 27.494191 10.160407 50.686403 2.89391 60.515259-1.583055 2.155083-3.266393 4.013407-4.956895 5.703909-1.930979 1.907443-3.965312 3.705392-5.944386 5.432733-2.026146 1.750877-3.669576 3.193739-5.179976 4.705162-13.879102 13.94971-9.721409 35.307134 16.460904 84.706217l3.464915 6.587022c24.847921 46.896076 38.154995 61.190641 56.985876 61.190641 4.432962 0 8.054443-0.950651 10.69662-1.654686 4.764514-1.251503 9.625218-2.526543 15.309684-2.749624l0.01228 0c12.862959 0 31.206746 13.96199 48.527227 36.45119C609.53643 681.450297 607.249341 691.790806 606.91779 692.862207L606.91779 692.862207zM606.91779 692.862207" p-id="1179" fill="#1296db"></path></svg>