<?xml version="1.0" standalone="no"?><!DOCTYPE svg PUBLIC "-//W3C//DTD SVG 1.1//EN" "http://www.w3.org/Graphics/SVG/1.1/DTD/svg11.dtd"><svg t="1590400086191" class="icon" viewBox="0 0 1024 1024" version="1.1" xmlns="http://www.w3.org/2000/svg" p-id="566" xmlns:xlink="http://www.w3.org/1999/xlink" width="200" height="200"><defs><style type="text/css"></style></defs><path d="M512 287.968m-192 0a192 192 0 1 0 384 0 192 192 0 1 0-384 0Z" fill="#E4F5FF" p-id="567"></path><path d="M512 511.968c-123.52 0-224-100.48-224-224s100.48-224 224-224c123.488 0 224 100.48 224 224s-100.512 224-224 224z m0-384c-88.224 0-160 71.776-160 160s71.776 160 160 160 160-71.776 160-160-71.776-160-160-160z" fill="#67B9FF" p-id="568"></path><path d="M787.776 894.496H160a32 32 0 0 1-32-32v-30.592C128 646.496 282.304 448 512 448a32 32 0 1 1 0 64c-190.816 0-319.232 164.416-320 318.496h595.776a32 32 0 1 1 0 64z" fill="#67B9FF" p-id="569"></path><path d="M787.776 894.464a32 32 0 1 1 0-64c35.296 0 64-28.704 64-64a64.064 64.064 0 0 0-113.728-40.32 31.904 31.904 0 0 1-44.992 4.672 31.936 31.936 0 0 1-4.672-44.992 127.552 127.552 0 0 1 99.392-47.36c70.592 0 128 57.408 128 128s-57.408 128-128 128z" fill="#67B9FF" p-id="570"></path><path d="M719.616 580.736a31.872 31.872 0 0 1-19.168-6.4A311.904 311.904 0 0 0 512 512a32 32 0 0 1 0-64c82.816 0 161.248 25.984 226.848 75.136a32 32 0 0 1-19.232 57.6z" fill="#67B9FF" p-id="571"></path></svg>