<?xml version="1.0" standalone="no"?><!DOCTYPE svg PUBLIC "-//W3C//DTD SVG 1.1//EN" "http://www.w3.org/Graphics/SVG/1.1/DTD/svg11.dtd"><svg t="1648217747916" class="icon" viewBox="0 0 1024 1024" version="1.1" xmlns="http://www.w3.org/2000/svg" p-id="2199" xmlns:xlink="http://www.w3.org/1999/xlink" width="200" height="200"><defs><style type="text/css"></style></defs><path d="M509.0304 980.04992l31.54944-244.52096s88.56576-91.28448 133.13024-131.2256a85.59616 85.59616 0 0 0-9.8048-2.05824l77.75744-128.27648h-179.92704c32.35328-46.5408 53.92384-107.84768 53.92384-175.95904v-15.89248c69.81632-12.48768 115.22048-32.35328 115.22048-52.21888 0-21.56544-50.51392-41.43616-127.70816-53.92384-3.4048-18.16576-55.62368-165.1712-116.92032-165.1712-27.24352 0-48.8192 14.18752-63.00672 35.75808 0 10.78784-10.78272 21.56544-24.97536 21.56544-12.48768 0-23.2704-9.08288-24.97024-19.8656C360.80128 26.7008 337.53088 10.24 310.28736 10.24 250.69056 10.24 195.06688 145.32608 182.5792 179.38432c-66.4064 12.48768-109.54752 30.64832-109.54752 52.21888 0 21.56544 44.84096 39.72608 115.2256 52.21888v15.89248c0 68.11136 19.8656 129.41312 53.92384 175.95904H62.24896l77.19424 126.00832c-57.32864 0-132.82304 78.8992-132.82304 147.57376l1.70496 206.60736c0 34.05824 26.6752 61.30176 61.30176 61.30176h664.65792a61.04576 61.04576 0 0 0 61.30176-61.30176l-0.53248-48.768-37.56032 37.46304-248.46336 35.49184zM353.42336 966.64576h-28.94848l-53.92384-397.32224 112.95744 98.75968-30.08512 298.56256z m123.74016 0h-28.94848l-30.65344-298.56256 113.52064-100.46464-53.91872 399.0272z m68.11136-627.2v12.48768h-14.18752s-9.08288 77.19424-57.32864 77.19424c-48.81408 0-57.89184-77.19424-57.89184-77.19424h-32.34816c-7.37792 63.0016-39.7312 77.19424-57.32864 77.19424-43.136 0-55.6288-57.32864-57.32864-77.19424H254.1056V326.9632h107.84256v12.48768h72.0896V326.9632h107.84256v12.48768h3.39456z m0 0" fill="" p-id="2200"></path><path d="M818.25792 538.35776l130.33472 130.33472-224.46592 224.46592-152.05376 21.72416 19.30752-149.64224zM970.3168 646.98368l-130.3296-130.33472 43.4432-43.4432 130.33472 130.33472z" fill="" p-id="2201"></path></svg>