<?xml version="1.0" standalone="no"?><!DOCTYPE svg PUBLIC "-//W3C//DTD SVG 1.1//EN" "http://www.w3.org/Graphics/SVG/1.1/DTD/svg11.dtd"><svg t="1578759793606" class="icon" viewBox="0 0 1024 1024" version="1.1" xmlns="http://www.w3.org/2000/svg" p-id="6136" xmlns:xlink="http://www.w3.org/1999/xlink" width="200" height="200"><defs><style type="text/css"></style></defs><path d="M605.3 540.8c-15.7-7.8-32.2-14.1-49.4-18.7 5.1-2.6 10.2-5.1 14.8-8.5 7.6-5.5 22.7-18.7 28.6-24.3 4.7-4.5 13.8-15.7 13.8-15.7 19-26.1 30.2-58.1 30.2-92.7 0-83.5-65.4-158-158-158-87.1 0-158 70.9-158 158 0 61.7 35.6 115.3 87.4 141.3-115.9 31.2-201.4 137.1-201.4 262.6 0 9 7.3 16.3 16.3 16.3s16.3-7.3 16.3-16.3c0-132 107.4-239.4 239.4-239.4 35.4 0 69.1 7.8 99.3 21.7 6.1-9.5 13-18.2 20.7-26.3zM359.9 380.9c0-69.2 56.3-125.4 125.4-125.4s125.4 56.3 125.4 125.4c0 69.2-56.3 125.4-125.4 125.4S359.9 450 359.9 380.9zM702.3 811.8c-6.1 0-12.2-1.6-17.7-4.8-8.2-4.7-14-12.3-16.5-21.4-8.6-1.2-16.9-3.5-24.9-6.6-13.8 13.7-36.2 13.7-49.9-0.1L580.4 766c-13.8-13.8-13.8-36.1-0.1-49.9-3.2-8-5.4-16.4-6.6-24.9-9.1-2.5-16.6-8.3-21.4-16.5-4.7-8.2-6-17.7-3.6-26.8l4.7-17.6c2.4-9.1 8.3-16.7 16.5-21.4 8.2-4.7 17.6-6 26.7-3.6 2.7-3.4 5.6-6.7 8.6-9.7s6.3-5.9 9.7-8.6c-4.9-18.8 6.3-38.1 25-43.2l17.6-4.7c18.8-5 38.2 6.1 43.3 24.9 8.6 1.2 16.9 3.5 24.9 6.6 13.8-13.7 36.2-13.7 49.9 0.1l12.9 12.9c13.8 13.8 13.8 36.1 0.1 49.9 3.2 8 5.4 16.4 6.6 24.9 9.1 2.5 16.6 8.3 21.4 16.5 4.7 8.2 6 17.7 3.6 26.8l-4.7 17.6c-5 18.8-24.4 30-43.2 25-2.7 3.4-5.6 6.6-8.6 9.7s-6.3 5.9-9.7 8.6c2.4 9.1 1.1 18.5-3.6 26.7S738 803.4 729 805.8l-17.6 4.7c-3 0.9-6.1 1.3-9.1 1.3z m-63.9-58.4l7 3.3c10.1 4.8 20.8 7.7 32.1 8.5l7.7 0.6 1.8 7.5c0.4 1.6 0.9 3.4 1.4 5.2l0.4 1.5c1 3.6 3.3 6.6 6.6 8.5 3.3 1.9 7 2.4 10.6 1.4l17.6-4.7c3.6-1 6.6-3.3 8.5-6.6 1.9-3.3 2.4-7 1.4-10.6l-0.4-1.4c-0.5-1.8-1-3.6-1.4-5.2l-2.2-7.4 6.4-4.4c4.6-3.2 9-6.8 12.8-10.6 3.9-3.9 7.5-8.2 10.6-12.8l4.4-6.4 7.4 2.2c1.6 0.5 3.3 0.9 5.1 1.4l1.6 0.4c7.5 2 15.2-2.4 17.2-9.9l4.7-17.6c1-3.6 0.5-7.4-1.4-10.6-1.9-3.3-4.9-5.6-8.5-6.6l-1.5-0.4c-1.8-0.5-3.6-1-5.2-1.4l-7.5-1.8-0.6-7.7c-0.9-11.2-3.7-22-8.5-32.1l-3.3-7 5.6-5.3c1.2-1.2 2.5-2.4 3.8-3.7l1.1-1.1c5.5-5.5 5.5-14.4 0-19.8l-12.9-12.9c-5.5-5.5-14.4-5.5-19.8 0l-1.1 1.1-3.8 3.8-5.3 5.6-7-3.3c-10.1-4.8-20.9-7.7-32.1-8.5l-7.7-0.6-1.8-7.5c-0.4-1.6-0.9-3.3-1.3-5.1l-0.4-1.5c-2-7.5-9.7-11.9-17.2-9.9l-17.6 4.7c-3.6 1-6.6 3.3-8.5 6.6-1.9 3.3-2.4 7-1.4 10.6l0.4 1.5c0.5 1.8 0.9 3.5 1.4 5.1l2.2 7.4-6.4 4.4c-4.6 3.2-9 6.8-12.8 10.6-3.9 3.9-7.5 8.2-10.6 12.8l-4.4 6.4-7.4-2.2c-1.6-0.5-3.3-0.9-5.1-1.4l-1.5-0.4c-3.6-1-7.4-0.5-10.6 1.4-3.3 1.9-5.6 4.9-6.6 8.5l-4.7 17.6c-1 3.6-0.5 7.4 1.4 10.6s4.9 5.6 8.5 6.6l1.5 0.4c1.8 0.5 3.6 1 5.2 1.4l7.5 1.8 0.6 7.7c0.9 11.2 3.7 22 8.5 32.1l3.3 7-5.6 5.3c-1.2 1.2-2.5 2.4-3.8 3.7l-1.1 1.1c-5.5 5.5-5.5 14.4 0 19.8l12.9 12.9c5.5 5.5 14.4 5.5 19.8 0l1.1-1.1c1.3-1.3 2.6-2.5 3.7-3.8l5.2-5.7z m46.1-14.3c-16.5 0-32.9-6.3-45.4-18.8-25.1-25.1-25.1-65.8 0-90.9 25.1-25.1 65.8-25.1 90.9 0 25.1 25.1 25.1 65.8 0 90.9-12.6 12.5-29.1 18.8-45.5 18.8z m0-107.1c-11 0-22 4.2-30.4 12.6-16.7 16.7-16.7 44 0 60.7 16.7 16.7 44 16.7 60.7 0 16.7-16.7 16.7-44 0-60.7-8.3-8.4-19.3-12.6-30.3-12.6z" fill="#11AAED" p-id="6137"></path></svg>