<?xml version="1.0" standalone="no"?><!DOCTYPE svg PUBLIC "-//W3C//DTD SVG 1.1//EN" "http://www.w3.org/Graphics/SVG/1.1/DTD/svg11.dtd"><svg t="1675308206811" class="icon" viewBox="0 0 1024 1024" version="1.1" xmlns="http://www.w3.org/2000/svg" p-id="2754" xmlns:xlink="http://www.w3.org/1999/xlink" width="200" height="200"><path d="M930.679467 792.900267l-232.106667-212.753067A339.626667 339.626667 0 0 0 714.24 547.968a338.082133 338.082133 0 0 0-622.865067-263.1424A338.0224 338.0224 0 0 0 576.2816 706.56l235.613867 215.953067a87.893333 87.893333 0 1 0 118.784-129.604267zM402.773333 720.264533A303.581867 303.581867 0 1 1 663.082667 573.44c-0.264533 0.366933-0.520533 0.7424-0.759467 1.1264a307.012267 307.012267 0 0 1-93.44 96.3584c-0.324267 0.213333-0.64 0.4352-0.9472 0.674133A301.824 301.824 0 0 1 402.773333 720.264533z m508.117334 173.764267a53.8112 53.8112 0 0 1-75.946667 3.310933L605.431467 686.933333a340.864 340.864 0 0 0 74.752-77.3632l227.438933 208.4608a53.819733 53.819733 0 0 1 3.3024 75.997867z" p-id="2755"></path><path d="M168.610133 557.4656a17.066667 17.066667 0 0 1-12.987733-28.16L278.024533 385.706667a17.066667 17.066667 0 0 1 23.202134-2.6368L440.507733 486.4l155.016534-249.275733a17.066667 17.066667 0 1 1 29.013333 18.0224L459.707733 520.174933a17.066667 17.066667 0 0 1-24.661333 4.701867L293.6576 419.985067 181.6064 551.466667a17.066667 17.066667 0 0 1-12.996267 5.998933z" p-id="2756"></path></svg>