<?xml version="1.0" standalone="no"?><!DOCTYPE svg PUBLIC "-//W3C//DTD SVG 1.1//EN" "http://www.w3.org/Graphics/SVG/1.1/DTD/svg11.dtd"><svg t="1651504995350" class="icon" viewBox="0 0 1147 1024" version="1.1" xmlns="http://www.w3.org/2000/svg" p-id="1814" xmlns:xlink="http://www.w3.org/1999/xlink" width="224.0234375" height="200"><defs><style type="text/css">@font-face { font-family: feedback-iconfont; src: url("//at.alicdn.com/t/font_1031158_u69w8yhxdu.woff2?t=1630033759944") format("woff2"), url("//at.alicdn.com/t/font_1031158_u69w8yhxdu.woff?t=1630033759944") format("woff"), url("//at.alicdn.com/t/font_1031158_u69w8yhxdu.ttf?t=1630033759944") format("truetype"); }
</style></defs><path d="M282.944 1024.064a64 64 0 0 1-57.28-35.776l-219.136-448a64 64 0 0 1 0-56.384l219.136-448a64 64 0 0 1 57.28-35.84h550.4a63.552 63.552 0 0 1 54.592 31.168l250.24 419.2a64 64 0 0 1 1.792 62.656l-250.24 476.8a64 64 0 0 1-56.384 34.176z m-148.16-512l187.84 384h472.256l215.616-410.816-213.248-357.184H322.624z m421.888 256a74.752 74.752 0 0 1-64-74.624L490.816 542.08 316.992 402.048A64 64 0 0 1 396.8 302.144l156.8 126.4 172.8-128.896a64 64 0 0 1 75.904 102.784L618.176 539.712l1.792 146.56c0.512 35.328-27.712 81.856-62.912 81.856z" fill="currentColor" p-id="1815"></path></svg>