<?xml version="1.0" standalone="no"?><!DOCTYPE svg PUBLIC "-//W3C//DTD SVG 1.1//EN" "http://www.w3.org/Graphics/SVG/1.1/DTD/svg11.dtd"><svg t="1663767154760" class="icon" viewBox="0 0 1024 1024" version="1.1" xmlns="http://www.w3.org/2000/svg" p-id="2362" xmlns:xlink="http://www.w3.org/1999/xlink" width="200" height="200"><path d="M718.08 350.72a132.266667 132.266667 0 1 1 131.84-132.266667 132.266667 132.266667 0 0 1-131.84 132.266667z m0-198.4a66.56 66.56 0 1 0 66.56 66.133333 66.133333 66.133333 0 0 0-66.56-66.133333z" fill="currentColor" p-id="2363"></path><path d="M905.813333 542.72a32.853333 32.853333 0 0 1-32.853333-32.853333 172.8 172.8 0 0 0-154.88-159.146667A163.413333 163.413333 0 0 0 563.2 512a32.853333 32.853333 0 1 1-65.706667 0 228.693333 228.693333 0 0 1 220.586667-224.853333A238.08 238.08 0 0 1 938.666667 512a32.426667 32.426667 0 0 1-32.853334 30.72z" fill="currentColor" p-id="2364"></path><path d="M334.506667 328.533333m0 25.173334l0 15.36q0 25.173333-25.173334 25.173333l-76.8 0q-25.173333 0-25.173333-25.173333l0-15.36q0-25.173333 25.173333-25.173334l76.8 0q25.173333 0 25.173334 25.173334Z" fill="currentColor" p-id="2365"></path><path d="M462.933333 498.346667m0 32.853333l0 0q0 32.853333-32.853333 32.853333l-189.866667 0q-32.853333 0-32.853333-32.853333l0 0q0-32.853333 32.853333-32.853333l189.866667 0q32.853333 0 32.853333 32.853333Z" fill="currentColor" p-id="2366"></path><path d="M801.28 665.6m0 32.853333l0 0q0 32.853333-32.853333 32.853334l-528.64 0q-32.853333 0-32.853334-32.853334l0 0q0-32.853333 32.853334-32.853333l528.64 0q32.853333 0 32.853333 32.853333Z" fill="currentColor" p-id="2367"></path><path d="M838.4 938.666667H181.76A100.693333 100.693333 0 0 1 85.333333 834.56V189.013333A100.693333 100.693333 0 0 1 181.76 85.333333H512a32.853333 32.853333 0 1 1 0 65.706667H181.76a35.413333 35.413333 0 0 0-32.853333 36.693333v646.826667a35.413333 35.413333 0 0 0 32.853333 36.693333h656.64a35.413333 35.413333 0 0 0 32.853333-36.693333v-170.666667a32.853333 32.853333 0 0 1 65.706667 0v170.666667A100.693333 100.693333 0 0 1 838.4 938.666667z" fill="currentColor" p-id="2368"></path></svg>