<?xml version="1.0" standalone="no"?><!DOCTYPE svg PUBLIC "-//W3C//DTD SVG 1.1//EN" "http://www.w3.org/Graphics/SVG/1.1/DTD/svg11.dtd"><svg t="1585041617745" class="icon" viewBox="0 0 1024 1024" version="1.1" xmlns="http://www.w3.org/2000/svg" p-id="1687" xmlns:xlink="http://www.w3.org/1999/xlink" width="200" height="200"><defs><style type="text/css"></style></defs><path d="M272 561.6V128a16 16 0 0 0-32 0v433.6a80 80 0 0 0 0 156.8V896a16 16 0 0 0 32 0V718.4a80 80 0 0 0 0-156.8zM256 688a48 48 0 1 1 48-48 48 48 0 0 1-48 48zM528 433.6V128a16 16 0 0 0-32 0v305.6a80 80 0 0 0 0 156.8V896a16 16 0 0 0 32 0V590.4a80 80 0 0 0 0-156.8zM512 560a48 48 0 1 1 48-48 48 48 0 0 1-48 48zM784 321.6V128a16 16 0 0 0-32 0v192a80 80 0 0 0 0 156.8V896a16 16 0 0 0 32 0V478.4a80 80 0 0 0 0-156.8zM768 448a48 48 0 1 1 48-48 48 48 0 0 1-48 48z" fill="currentColor" p-id="1688"></path></svg>