<?xml version="1.0" standalone="no"?><!DOCTYPE svg PUBLIC "-//W3C//DTD SVG 1.1//EN" "http://www.w3.org/Graphics/SVG/1.1/DTD/svg11.dtd"><svg t="1672300072099" class="icon" viewBox="0 0 1024 1024" version="1.1" xmlns="http://www.w3.org/2000/svg" p-id="6599" xmlns:xlink="http://www.w3.org/1999/xlink" width="200" height="200"><path d="M398.753773 834.390571c-10.326183 0-18.696828-8.370645-18.696828-18.696828L380.056945 328.657298c0-10.326183 8.370645-18.696828 18.696828-18.696828s18.696828 8.370645 18.696828 18.696828l0 487.036445C417.4506 826.019926 409.079956 834.390571 398.753773 834.390571z" fill="#d81e06" p-id="6600"></path><path d="M633.890095 834.390571c-10.326183 0-18.696828-8.370645-18.696828-18.696828L615.193267 328.657298c0-10.326183 8.370645-18.696828 18.696828-18.696828s18.696828 8.370645 18.696828 18.696828l0 487.036445C652.586922 826.019926 644.216277 834.390571 633.890095 834.390571z" fill="#d81e06" p-id="6601"></path><path d="M710.574614 985.684346c-4.027733 0-8.083096-1.295506-11.500938-3.967358-26.988678-21.096481-80.083943-25.731034-98.264001-25.735128l-27.973098 0c-0.036839 0-0.073678 0-0.109494 0l-39.437198-0.233314L233.780441 955.748546c-0.335644 0-0.670266-0.00921-1.00591-0.026606-22.538319-1.214664-35.687804-11.190877-42.74964-19.345604-15.238053-17.596773-14.937201-40.310078-14.603603-45.898353L175.421288 248.768807c0-10.326183 8.370645-18.696828 18.696828-18.696828s18.696828 8.370645 18.696828 18.696828l0 642.355907c0 0.660032 0 0.968048-0.066515 1.597381-0.212848 3.461845 0.393973 13.353123 5.653767 19.300578 3.352351 3.791349 8.56405 5.863545 15.921621 6.332219l299.029514 0c0.036839 0 0.073678 0 0.109494 0l39.437198 0.233314 27.913746 0c3.199878 0.001023 78.735226 0.404206 121.287367 33.667797 8.135284 6.359848 9.575076 18.10945 3.216251 26.244734C721.630415 983.217155 716.130144 985.684346 710.574614 985.684346z" fill="#d81e06" p-id="6602"></path><path d="M798.810215 955.980837l-24.01495 0c-10.326183 0-18.696828-8.370645-18.696828-18.696828s8.370645-18.696828 18.696828-18.696828l21.841447 0c0.64059-0.102331 1.287319-0.170892 1.937119-0.205685 7.676843-0.413416 13.07069-2.534729 16.490579-6.483668 6.093788-7.039323 5.560646-18.983353 5.550413-19.097964-0.050142-0.556679-0.074701-1.116427-0.074701-1.676176L820.540122 248.768807c0-10.326183 8.370645-18.696828 18.696828-18.696828l49.27117 0c0.075725 0 0.12075 0 0.172939-0.00307 0.047072-0.00307-0.020466-0.007163 0.063445-0.002047 6.862291-0.254803 6.854105-4.354168 6.847965-7.356548l0-92.054579c0-3.504824-2.849908-6.356778-6.352685-6.356778l-214.925001 0c-5.02034 0.021489-42.351574-0.751107-71.783907-32.649608-0.141216-0.152473-0.278339-0.306992-0.413416-0.463558-9.723455-11.266601-23.842011-17.33276-41.968857-18.031679l-86.940095 0c-18.124799 0.698918-32.240285 6.764054-41.961694 18.030655-0.1361 0.157589-0.274246 0.312108-0.415462 0.464581-29.434379 31.898501-66.768683 32.68133-71.785953 32.649608L144.119375 124.298957c-3.504824 0-6.355755 2.851954-6.355755 6.356778l0 92.015693c-0.00614 3.038196-0.013303 7.140631 6.852058 7.394411 0.086981-0.00614 0.017396-0.001023 0.062422 0.002047 0.052189 0.002047 0.095167 0.002047 0.172939 0.00307l49.2681 0c10.326183 0 18.696828 8.370645 18.696828 18.696828s-8.370645 18.696828-18.696828 18.696828l-49.134047 0c-3.726881 0.057305-19.807115-0.533143-32.124651-12.625552-5.714142-5.610788-12.521175-15.752776-12.489452-32.202423l0-91.980901c0-24.12342 19.62599-43.750433 43.74941-43.750433l214.997656 0c0.289596 0 0.270153-0.005117 0.499373 0.005117 1.973958 0 24.966625-0.446162 43.546795-20.420075 11.642155-13.380752 33.026184-29.455869 69.042469-30.719652 0.218988-0.008186 0.436952-0.01228 0.655939-0.01228l87.62878 0c0.218988 0 0.436952 0.004093 0.655939 0.01228 36.020378 1.263783 57.405431 17.337877 69.049632 30.718629 18.577101 19.971867 41.568744 20.420075 43.545772 20.420075 0.230244-0.011256 0.210801-0.005117 0.499373-0.005117l214.998679 0c24.121374 0 43.745317 19.627013 43.745317 43.750433l0 92.015693c0.032746 16.412808-6.771217 26.554796-12.486382 32.166607-12.317537 12.094456-28.389584 12.67774-32.124651 12.626575l-30.441313 0 0 623.010303c0.334621 5.586229 0.638543 28.300556-14.59951 45.899376-6.843872 7.904017-19.404955 17.519002-40.690748 19.208481C801.38383 955.847807 800.09958 955.980837 798.810215 955.980837z" fill="#d81e06" p-id="6603"></path></svg>