<?xml version="1.0" standalone="no"?><!DOCTYPE svg PUBLIC "-//W3C//DTD SVG 1.1//EN" "http://www.w3.org/Graphics/SVG/1.1/DTD/svg11.dtd"><svg t="1650643735286" class="icon" viewBox="0 0 1024 1024" version="1.1" xmlns="http://www.w3.org/2000/svg" p-id="3206" xmlns:xlink="http://www.w3.org/1999/xlink" width="200" height="200"><defs><style type="text/css">@font-face { font-family: feedback-iconfont; src: url("//at.alicdn.com/t/font_1031158_u69w8yhxdu.woff2?t=1630033759944") format("woff2"), url("//at.alicdn.com/t/font_1031158_u69w8yhxdu.woff?t=1630033759944") format("woff"), url("//at.alicdn.com/t/font_1031158_u69w8yhxdu.ttf?t=1630033759944") format("truetype"); }
</style></defs><path d="M145.199 353.767c-2.4-9.3 3.2-18.6 12.4-20.6 16.5-3.6 44.2-8.9 77.8-12.1 65.6-6.4 123.2-2.6 171.5 11.1 9.1 2.6 14.2 12.4 11.1 21.5-2.8 8.3-11.5 13.1-19.8 10.7-89-25.3-195.1-6.9-233.8 1.4-8.6 1.9-17-3.4-19.2-12z m0 136.2c-2.4-9.3 3.2-18.6 12.4-20.6 16.5-3.6 44.2-8.9 77.8-12.1 65.5-6.4 123.1-2.6 171.4 11.1 9.1 2.6 14.2 12.4 11.1 21.5-2.8 8.3-11.5 13.1-19.8 10.7-89-25.3-195.1-6.9-233.8 1.4-8.5 1.9-16.9-3.4-19.1-12z m0 125.9c-2.4-9.3 3.2-18.6 12.4-20.6 16.5-3.6 44.2-8.9 77.8-12.1 65.5-6.4 123.1-2.6 171.4 11.1 9.1 2.6 14.2 12.4 11.1 21.5-2.8 8.3-11.5 13.1-19.8 10.7-89-25.3-195.1-6.9-233.8 1.4-8.5 1.9-16.9-3.5-19.1-12z m470.8-262.1c-2.4-9.3 3.2-18.6 12.4-20.6 16.5-3.6 44.2-8.9 77.8-12.1 65.5-6.4 123.1-2.6 171.4 11.1 9.1 2.6 14.2 12.4 11.1 21.5-2.8 8.3-11.5 13.1-19.8 10.7-89-25.3-195.1-6.9-233.8 1.4-8.5 1.9-17-3.4-19.1-12z m0 136.2c-2.4-9.3 3.2-18.6 12.4-20.6 16.5-3.6 44.2-8.9 77.8-12.1 65.5-6.4 123.1-2.6 171.4 11.1 9.1 2.6 14.2 12.4 11.1 21.5-2.8 8.3-11.5 13.1-19.8 10.7-89-25.3-195.1-6.9-233.8 1.4-8.5 1.9-17-3.4-19.1-12z m0 125.9c-2.4-9.3 3.2-18.6 12.4-20.6 16.5-3.6 44.2-8.9 77.8-12.1 65.5-6.4 123.1-2.6 171.4 11.1 9.1 2.6 14.2 12.4 11.1 21.5-2.8 8.3-11.5 13.1-19.8 10.7-89-25.3-195.1-6.9-233.8 1.4-8.5 1.9-17-3.5-19.1-12zM533.499 878.867c-28.9 0-52.4-23.7-52.4-52.8v-612.1c0-22 13.7-41.9 34.1-49.5 14.3-5.3 66.7-23.5 143.1-32.9 30.8-3.8 62-5.7 92.9-5.7 32.7 0 65.8 2.2 98.1 6.4 47 6.2 93.7 16.8 138.5 31.7 21.5 7.1 36 27.3 36 50.3v166.4c0 17-13.7 30.7-30.7 30.7s-30.7-13.7-30.7-30.7v-160.4c-39.3-12.6-80.1-21.7-121-27.1-29.7-3.9-60-5.8-90.1-5.8-28.4 0-57.1 1.7-85.4 5.2-61.8 7.6-106.4 21.5-123.2 27.3v593.6c54.2-18.4 119.4-27.7 193.8-27.7 99.2 0 188.5 16.5 226.1 24.6v-187.5c0-17 13.7-30.7 30.7-30.7s30.7 13.7 30.7 30.7v198.5c0 29.2-23.4 52.8-52.3 52.8-3.9 0-7.9-0.4-11.7-1.3-25.9-5.9-118.9-25.5-223.5-25.5-72.7 0-134.9 9.5-184.6 28.2-6 2.1-12.1 3.3-18.4 3.3zM52.399 878.867c-28.9 0-52.4-23.7-52.4-52.8v-612.1c0-22 13.7-41.9 34.1-49.5 17.2-6.4 109.5-38.5 236-38.5 80.9 0 160.6 12.8 236.8 38 21.5 7.1 36 27.3 36 50.3v607.2c0 29.2-23.4 52.8-52.3 52.8-3.9 0-7.9-0.4-11.7-1.3-26-5.9-119-25.5-223.6-25.5-72.8 0-134.9 9.5-184.7 28.2-5.8 2-11.9 3.2-18.2 3.2z m9.1-659v593.6c54.2-18.4 119.4-27.7 193.9-27.7 99.2 0 188.5 16.5 226.2 24.6v-590.1c-68.1-21.8-139.1-33-211.3-33-105.6 0.1-183.9 24-208.8 32.6z" p-id="3207"></path></svg>