<?xml version="1.0" standalone="no"?><!DOCTYPE svg PUBLIC "-//W3C//DTD SVG 1.1//EN" "http://www.w3.org/Graphics/SVG/1.1/DTD/svg11.dtd"><svg t="1669013495987" class="icon" viewBox="0 0 1024 1024" version="1.1" xmlns="http://www.w3.org/2000/svg" p-id="2749" xmlns:xlink="http://www.w3.org/1999/xlink" width="200" height="200"><path d="M502.010485 765.939573c3.773953 3.719718 8.686846 5.573949 13.596669 5.573949 0.075725 0 0.151449-0.010233 0.227174-0.011256 0.329505 0.016373 0.654916 0.050142 0.988514 0.050142 0.706081 0 1.400906-0.042979 2.087545-0.116657 4.352121-0.366344 8.607028-2.190899 11.961426-5.496178l335.053985-330.166675c7.619538-7.509021 7.709589-19.773346 0.200568-27.393907s-19.774369-7.711636-27.39493-0.201591L536.193005 706.304358 536.193005 50.019207c0-10.698666-8.67252-19.371186-19.371186-19.371186s-19.371186 8.67252-19.371186 19.371186l0 657.032164-306.881342-302.44838c-7.618515-7.509021-19.883863-7.419993-27.393907 0.199545-7.509021 7.619538-7.419993 19.884886 0.199545 27.393907L502.010485 765.939573z" p-id="2750" fill="currentColor"></path><path d="M867.170139 711.020776c-10.698666 0-19.371186 8.67252-19.371186 19.371186l0 165.419494c0 13.054317-10.620895 23.675212-23.676236 23.675212L205.182103 919.486668c-13.054317 0-23.676236-10.620895-23.676236-23.675212L181.505867 730.391962c0-10.698666-8.67252-19.371186-19.371186-19.371186s-19.371186 8.67252-19.371186 19.371186l0 165.419494c0 34.416857 28.000728 62.416562 62.417585 62.416562l618.941638 0c34.417881 0 62.417585-27.999704 62.417585-62.416562L886.540302 730.391962C886.541325 719.693296 877.868805 711.020776 867.170139 711.020776z" p-id="2751" fill="currentColor"></path></svg>