<?xml version="1.0" standalone="no"?><!DOCTYPE svg PUBLIC "-//W3C//DTD SVG 1.1//EN" "http://www.w3.org/Graphics/SVG/1.1/DTD/svg11.dtd"><svg t="1669371957947" class="icon" viewBox="0 0 1024 1024" version="1.1" xmlns="http://www.w3.org/2000/svg" p-id="2333" xmlns:xlink="http://www.w3.org/1999/xlink" width="200" height="200"><path d="M993.315048 774.363395 764.285676 859.82317 915.951482 859.82317C937.037898 859.82317 954.132144 876.917034 954.132144 898.003832L954.132144 985.819353C954.132144 1006.905769 937.037898 1024.000015 915.951482 1024.000015L109.957715 1024.000015C88.870917 1024.000015 71.777053 1006.905769 71.777053 985.819353L71.777053 898.003832C71.777053 876.917034 88.870917 859.82317 109.957715 859.82317L251.924105 859.82317 15.393379 226.037932C10.365368 212.565885 17.211924 197.568903 30.685116 192.541274L515.206876 11.748205C546.421476 0.100812 544.240596-1.772331 555.421421 1.332138 559.575477 2.094606 563.818112 3.486673 567.956896 5.558356L757.56168 100.469372C767.562722 102.408568 781.310433 133.105438 786.680543 146.214386L1008.607166 740.866737C1013.635178 754.339165 1006.788621 769.336147 993.315048 774.363395ZM595.330521 77.495686 622.770199 151.02095 691.202163 125.486105 595.330521 77.495686ZM737.635193 163.741982 620.452633 207.46724C619.266742 208.138456 618.014798 208.728347 616.697183 209.220114 603.223991 214.247362 588.225482 207.401569 583.197471 193.929523L533.41447 60.535836 73.289007 232.225872 307.510567 859.82317 615.328788 859.82317 950.711538 734.679179 737.635193 163.741982ZM454.73138 771.647986C441.257806 776.675234 426.259679 769.829442 421.231668 756.357013 416.203656 742.884967 423.050213 727.887985 436.523786 722.860355L724.642695 615.352394C738.116269 610.324764 753.114778 617.170938 758.142408 630.642985 763.170419 644.115413 756.323863 659.112395 742.850289 664.139643L454.73138 771.647986ZM677.855731 489.986955 389.736822 597.494916C376.263248 602.522546 361.26512 595.676371 356.237109 582.204325 351.209098 568.731897 358.055654 553.734915 371.529228 548.707285L659.648137 441.199323C673.12171 436.172076 688.12022 443.017868 693.147849 456.490297 698.175861 469.962343 691.329304 484.959707 677.855731 489.986955ZM615.39675 322.62737 327.277459 430.135331C313.804267 435.162579 298.805758 428.316786 293.777747 414.84474 288.750117 401.372312 295.596673 386.37533 309.069865 381.3477L597.188774 273.839738C610.662348 268.812491 625.660857 275.658283 630.688868 289.13033 635.716498 302.602758 628.869942 317.59974 615.39675 322.62737ZM786.685889 146.227368C786.683979 146.223168 786.68207 146.218586 786.680543 146.214386L786.427024 145.535534C786.515985 145.773781 786.601891 146.003247 786.685889 146.227368ZM786.685889 146.227368C789.437951 152.946782 789.983552 155.03221 786.685889 146.227368Z" p-id="2334" fill="currentColor"></path></svg>