<?xml version="1.0" standalone="no"?><!DOCTYPE svg PUBLIC "-//W3C//DTD SVG 1.1//EN" "http://www.w3.org/Graphics/SVG/1.1/DTD/svg11.dtd"><svg t="1588860897225" class="icon" viewBox="0 0 1024 1024" version="1.1" xmlns="http://www.w3.org/2000/svg" p-id="1705" xmlns:xlink="http://www.w3.org/1999/xlink" width="200" height="200"><defs><style type="text/css"></style></defs><path d="M796.378 867.578h-540.5c-70.6 0-128-57.4-128-128v-519.1c0-35.3 28.7-64 64-64h206c17.4 0 34.2 7.2 46.3 19.8l105.7 110.5h246.5c70.6 0 128 57.4 128 128v324.7c0 70.7-57.5 128.1-128 128.1z m-578.9-621.5v493.5c0 21.2 17.2 38.4 38.4 38.4h540.5c21.2 0 38.4-17.2 38.4-38.4v-324.7c0-21.2-17.2-38.4-38.4-38.4h-284.9l-124.6-130.4h-169.4z" fill="currentColor" p-id="1706"></path><path d="M476.467 749.467l-6.7-1c-23.5-7.4-45.3-19.9-63.8-36.9-5.5-4.7-8.6-11.8-8.6-19.2 0-7.4 3.2-14.5 8.6-19.2 4.7-3.4 7.7-8.9 8.1-15 0.7-7.1-2.5-14-8.3-17.7-5.8-3.7-13.1-3.6-18.8 0.3-6.5 3-13.9 3-20.5 0s-11.6-9.1-13.3-16.5c-4.4-15.2-6.6-31-6.7-46.9 0.2-14.5 2.1-28.9 5.7-42.9 1.3-6.8 5.5-12.7 11.4-16 6.2-3 13.3-3 19.5 0 5.8 2.1 12.1 1.1 17.1-2.5 5-3.6 8-9.6 8.1-15.9-0.1-5.6-2.5-10.9-6.7-14.5-5.1-4.7-8-11.4-8.1-18.4 0-7 2.8-13.7 7.6-18.4 19.6-18.6 43.1-32.1 68.6-39.4 12.5-3.5 25.4 4 29 17 3.2 7.7 10.6 12.4 18.6 12 8.2 0.1 15.5-5.7 17.6-14 4.5-12.7 17.8-19.3 30-15 25.4 7.4 48.8 21 68.1 39.9 4.9 4.8 7.6 11.5 7.6 18.4-0.2 7-3.2 13.7-8.1 18.4-4.2 3.5-6.6 8.8-6.7 14.5 0 5.3 2 10.4 5.6 14.1 3.6 3.7 8.4 5.8 13.5 5.8h6.2c6-3 13-3 19 0 6.2 3 10.6 9 11.9 16 3.6 14 5.6 28.4 5.7 42.9-0.2 15-2.1 29.9-5.7 44.4-1.8 6.7-6.1 12.5-11.9 16-6.1 2.5-12.9 2.5-19 0-5.8-2.6-12.4-1.9-17.5 1.9s-8.1 10-7.7 16.6c0.2 5.5 2.4 10.7 6.2 14.5 5.2 4.3 8.1 11 7.6 17.9 0.2 7-2.6 13.8-7.6 18.4-19.2 18.2-42.2 31.5-67.1 38.9-6.6 2-13.7 0.9-19.5-3-5.8-3.7-9.8-9.9-11-17-1.4-9.2-9-15.9-17.9-15.9s-16.4 6.7-17.9 15.9c-1.4 6.9-5.3 13-11 17-3.2 2.5-7.1 4-11.2 4.5z m-17-61.3l7.1 4.4c11.2-19.1 30.4-30.6 51-30.6s39.8 11.5 51 30.6l10.2-6.4c-3.5-8.5-5.3-17.6-5.3-26.9 0.1-35.7 25-65.5 57.3-68.5 0.2-3.4 0.2-6.9 0-10.3 0.2-3.1 0.2-6.2 0-9.3-20.6-1.5-39.1-14.2-49.5-33.8-10.4-19.6-11.3-43.6-2.4-64.1-4.4-3.1-9-5.8-13.8-8.3-12.1 15.1-29.4 23.8-47.7 23.8-18.3 0-35.7-8.7-47.7-23.8-4.9 2.4-9.7 5.2-14.2 8.3 8.9 20.5 8 44.5-2.4 64.1-10.4 19.6-28.9 32.3-49.5 33.8-0.2 3.1-0.2 6.2 0 9.3-0.2 3.4-0.2 6.9 0 10.3 16.6-0.1 32.5 7 44.2 19.9s18.4 30.4 18.4 48.6c-0.1 10.1-2.4 20-6.7 28.9z" fill="currentColor" p-id="1707"></path><path d="M517.167 635.667c-23 0-43.8-13.9-52.6-35.1-8.8-21.3-3.9-45.7 12.3-62s40.7-21.1 62-12.3c21.3 8.8 35.1 29.6 35.1 52.6 0.1 31.3-25.4 56.8-56.8 56.8z m0-69.7c-5.2 0-9.8 3.1-11.8 7.9-2 4.8-0.9 10.3 2.8 13.9 3.7 3.7 9.2 4.8 13.9 2.8s7.9-6.6 7.9-11.8c0-7.1-5.8-12.8-12.8-12.8z" fill="currentColor" p-id="1708"></path></svg>