<?xml version="1.0" standalone="no"?><!DOCTYPE svg PUBLIC "-//W3C//DTD SVG 1.1//EN" "http://www.w3.org/Graphics/SVG/1.1/DTD/svg11.dtd"><svg t="1655305185587" class="icon" viewBox="0 0 1024 1024" version="1.1" xmlns="http://www.w3.org/2000/svg" p-id="3933" xmlns:xlink="http://www.w3.org/1999/xlink" width="200" height="200"><defs><style type="text/css">@font-face { font-family: feedback-iconfont; src: url("//at.alicdn.com/t/font_1031158_u69w8yhxdu.woff2?t=1630033759944") format("woff2"), url("//at.alicdn.com/t/font_1031158_u69w8yhxdu.woff?t=1630033759944") format("woff"), url("//at.alicdn.com/t/font_1031158_u69w8yhxdu.ttf?t=1630033759944") format("truetype"); }
</style></defs><path d="M789.333333 170.666667a64 64 0 0 1 64 64v554.666666a64 64 0 0 1-64 64H234.666667a64 64 0 0 1-64-64V234.666667a64 64 0 0 1 64-64h554.666666zM341.333333 693.333333h-106.666666V789.333333h106.666666v-96z m448 0H405.333333V789.333333h384v-96zM341.333333 533.333333h-106.666666v96h106.666666V533.333333z m448 0H405.333333v96h384V533.333333z m-554.666666-160V469.333333h106.666666v-96h-106.666666zM789.333333 234.666667H234.666667v74.666666h554.666666V234.666667zM405.333333 469.333333h384v-96H405.333333V469.333333z" p-id="3934" fill="#1296db"></path></svg>