<?xml version="1.0" standalone="no"?><!DOCTYPE svg PUBLIC "-//W3C//DTD SVG 1.1//EN" "http://www.w3.org/Graphics/SVG/1.1/DTD/svg11.dtd"><svg t="1650370378683" class="icon" viewBox="0 0 1024 1024" version="1.1" xmlns="http://www.w3.org/2000/svg" p-id="4306" xmlns:xlink="http://www.w3.org/1999/xlink" width="200" height="200"><defs><style type="text/css">@font-face { font-family: feedback-iconfont; src: url("//at.alicdn.com/t/font_1031158_u69w8yhxdu.woff2?t=1630033759944") format("woff2"), url("//at.alicdn.com/t/font_1031158_u69w8yhxdu.woff?t=1630033759944") format("woff"), url("//at.alicdn.com/t/font_1031158_u69w8yhxdu.ttf?t=1630033759944") format("truetype"); }
</style></defs><path d="M185.2 617.3l125.9 125.9c3.4 3.4 8.6 3.4 12 0s3.4-8.6 0-12L202.9 611.6 323.1 492c3.4-3.4 3.4-8.6 0-12s-8.6-3.4-12 0L184.6 605.3c-1.7 1.7-2.3 4-2.3 6.3s1.2 4.6 2.9 5.7z" p-id="4307"></path><path d="M361.9 818.5c9.8 5.6 22.4 1.4 28-8.4l237.6-448.7c4.2-11.2 0-22.4-9.8-28s-22.4-1.4-28 8.4L352.1 790.5c-4.2 11.2 0 22.4 9.8 28z" p-id="4308"></path><path d="M693.4 653.4c3.7 3.7 9.3 3.7 13 0l136.1-136.1c1.9-1.9 2.5-4.3 2.5-6.8s-0.6-5-2.5-6.8L706.4 367.5c-3.7-3.7-9.3-3.7-13 0s-3.7 9.3 0 13l130 130-130 130c-3.7 3.6-3.7 9.2 0 12.9z" p-id="4309"></path><path d="M917.4 123.2H106.2c-23.1 0-42 18.2-42 41.3v693c0 22.4 18.9 41.3 42 41.3h811.2c23.1 0 42-18.2 40-38.3v-693c1.9-25.4-16.9-44.3-40-44.3z m-30.8 723.3l-757.8 6c-9.3 0-16.8-7.5-16.8-16.8V305.8c0-10.2 8.3-18.4 18.4-18.4h757.8c10.9 0 19.8 8.9 19.8 19.8l3 514.9c0 13.5-10.9 24.4-24.4 24.4z m-486.7-682c23.1 0 42 18.9 42 41.3S423 247 399.9 247s-42-18.2-42-41.3c0-22.3 18.9-41.2 42-41.2z m-125.9 0c23.1 0 42 18.9 42 41.3S297.1 247 274 247s-42-18.2-42-41.3c0-22.3 18.9-41.2 42-41.2z m-125.9 0c23.1 0 42 18.9 42 41.3s-18.9 41.3-42 41.3-42-18.2-42-41.3c0.1-22.4 19-41.3 42-41.3z" p-id="4310"></path></svg>