<?xml version="1.0" standalone="no"?><!DOCTYPE svg PUBLIC "-//W3C//DTD SVG 1.1//EN" "http://www.w3.org/Graphics/SVG/1.1/DTD/svg11.dtd"><svg t="1663684870320" class="icon" viewBox="0 0 1024 1024" version="1.1" xmlns="http://www.w3.org/2000/svg" p-id="4953" xmlns:xlink="http://www.w3.org/1999/xlink" width="200" height="200"><path d="M303.55 579.39c-108.87 0-197.12-88.26-197.12-197.13 0-108.87 88.26-197.12 197.12-197.12s197.13 88.26 197.13 197.12c-0.33 108.74-88.4 196.81-197.13 197.13z m0-328.54c-72.58 0-131.42 58.84-131.42 131.42 0 72.58 58.84 131.42 131.42 131.42s131.42-58.84 131.42-131.42c-0.23-72.49-58.94-131.19-131.42-131.42z m164.27 427.1H139.28c-18.15 0-32.86-14.71-32.86-32.85 0-18.15 14.71-32.86 32.86-32.86h328.54c18.15 0 32.86 14.71 32.86 32.86-0.01 18.15-14.72 32.85-32.86 32.85z m0 0" fill="#07a3b8" p-id="4954"></path><path d="M303.55 842.22c-8.86 0.54-17.54-2.75-23.82-9.03a31.019 31.019 0 0 1-9.03-23.82V546.54c0-18.15 14.71-32.86 32.85-32.86 18.15 0 32.86 14.71 32.86 32.86v262.83c0.53 8.87-2.75 17.54-9.03 23.82a31.068 31.068 0 0 1-23.83 9.03z m427.1 0c-108.87 0-197.13-88.26-197.13-197.12s88.25-197.13 197.13-197.13c108.87 0 197.12 88.26 197.12 197.13-0.32 108.74-88.39 196.8-197.12 197.12z m0-328.54c-72.58 0-131.42 58.84-131.42 131.42s58.84 131.42 131.42 131.42c72.58 0 131.42-58.84 131.42-131.42-0.23-72.49-58.93-131.19-131.42-131.42z m0 0" fill="#07a3b8" p-id="4955"></path><path d="M730.65 513.68c-8.87 0.54-17.54-2.75-23.82-9.03a31.019 31.019 0 0 1-9.03-23.82V218c0-18.14 14.71-32.85 32.86-32.85 18.14 0 32.85 14.71 32.85 32.85v262.72c0.54 8.87-2.75 17.54-9.03 23.82a31.019 31.019 0 0 1-23.82 9.03v0.11z m0 0" fill="#07a3b8" p-id="4956"></path><path d="M868.64 382.27c-8.74 0.25-17.15-3.35-23-9.86L730.65 257.42 615.66 372.41c-12.7 12.7-33.3 12.7-46 0-12.7-12.7-12.7-33.29 0-46l137.99-137.99a31.75 31.75 0 0 1 23-9.87c8.69 0 17.01 3.57 23 9.87l137.99 137.99a31.75 31.75 0 0 1 9.87 23c0 8.69-3.56 17.01-9.87 23a25.59 25.59 0 0 1-23 9.86z m0 0" fill="#07a3b8" p-id="4957"></path></svg>