<?xml version="1.0" standalone="no"?><!DOCTYPE svg PUBLIC "-//W3C//DTD SVG 1.1//EN" "http://www.w3.org/Graphics/SVG/1.1/DTD/svg11.dtd"><svg t="1653469230055" class="icon" viewBox="0 0 1024 1024" version="1.1" xmlns="http://www.w3.org/2000/svg" p-id="3733" xmlns:xlink="http://www.w3.org/1999/xlink" width="200" height="200"><defs><style type="text/css">@font-face { font-family: feedback-iconfont; src: url("//at.alicdn.com/t/font_1031158_u69w8yhxdu.woff2?t=1630033759944") format("woff2"), url("//at.alicdn.com/t/font_1031158_u69w8yhxdu.woff?t=1630033759944") format("woff"), url("//at.alicdn.com/t/font_1031158_u69w8yhxdu.ttf?t=1630033759944") format("truetype"); }
</style></defs><path d="M218.195 789.455c0-128.957 83.396-238.437 199.204-277.462-115.808-39.01-199.204-148.491-199.204-277.448v-84h-66.372c-22.495 0-40.732-18.234-40.732-40.727v-5.09c0-22.494 18.237-40.728 40.732-40.728h719.354c22.495 0 40.732 18.234 40.732 40.727v5.091c0 22.493-18.237 40.727-40.732 40.727h-67.464v84c0 128.957-83.396 238.437-199.203 277.462 115.807 39.01 199.203 148.491 199.203 277.448v84h67.918c22.496 0 40.732 18.234 40.732 40.727v5.09c0 22.494-18.236 40.728-40.732 40.728H152.277c-22.495 0-40.731-18.234-40.731-40.727v-5.091c0-22.493 18.236-40.727 40.731-40.727h65.918v-84z" fill="#C5C5C5" fill-opacity=".461" p-id="3734"></path><path d="M870.631 64c22.496 0 40.732 18.234 40.732 40.727v5.091c0 22.493-18.236 40.727-40.732 40.727H151.277c-22.495 0-40.731-18.234-40.731-40.727v-5.09c0-22.494 18.236-40.728 40.731-40.728h719.354zM871.631 873.455c22.496 0 40.732 18.234 40.732 40.727v5.09c0 22.494-18.236 40.728-40.732 40.728H152.277c-22.495 0-40.731-18.234-40.731-40.727v-5.091c0-22.493 18.236-40.727 40.731-40.727h719.354z" fill="#C5C5C5" fill-opacity=".461" p-id="3735"></path><path d="M258.927 873.455h509.146L682.197 769.59A218.89 218.89 0 0 0 513.5 690.182a218.89 218.89 0 0 0-168.697 79.408l-85.876 103.865z" fill="#000000" fill-opacity=".179" p-id="3736"></path></svg>