<?xml version="1.0" standalone="no"?><!DOCTYPE svg PUBLIC "-//W3C//DTD SVG 1.1//EN" "http://www.w3.org/Graphics/SVG/1.1/DTD/svg11.dtd"><svg t="1668428338299" class="icon" viewBox="0 0 1024 1024" version="1.1" xmlns="http://www.w3.org/2000/svg" p-id="2732" xmlns:xlink="http://www.w3.org/1999/xlink" width="200" height="200"><path d="M1024 704l0 192c0 70.4-57.6 128-128 128L128 1024c-70.4 0-128-57.6-128-128l0-192 128-576c19.2-64 57.6-128 128-128l512 0c70.4 0 108.8 64 128 128L1024 704C1024 704 1024 704 1024 704zM768 134.4 768 134.4 256 128l0 6.4L147.2 704 384 704l0 0 0 0 0 64c0 38.4 25.6 64 64 64l128 0c38.4 0 64-25.6 64-64l0-64 236.8 0L768 134.4zM256 512c0-38.4 25.6-64 64-64l384 0c38.4 0 64 25.6 64 64s-25.6 64-64 64L320 576C281.6 576 256 550.4 256 512zM640 384 384 384C345.6 384 320 358.4 320 320c0-38.4 25.6-64 64-64l256 0c38.4 0 64 25.6 64 64C704 358.4 678.4 384 640 384z" p-id="2733" fill="currentColor"></path></svg>