<?xml version="1.0" standalone="no"?><!DOCTYPE svg PUBLIC "-//W3C//DTD SVG 1.1//EN" "http://www.w3.org/Graphics/SVG/1.1/DTD/svg11.dtd"><svg t="1651223388839" class="icon" viewBox="0 0 1024 1024" version="1.1" xmlns="http://www.w3.org/2000/svg" p-id="1835" xmlns:xlink="http://www.w3.org/1999/xlink" width="200" height="200"><defs><style type="text/css">@font-face { font-family: feedback-iconfont; src: url("//at.alicdn.com/t/font_1031158_u69w8yhxdu.woff2?t=1630033759944") format("woff2"), url("//at.alicdn.com/t/font_1031158_u69w8yhxdu.woff?t=1630033759944") format("woff"), url("//at.alicdn.com/t/font_1031158_u69w8yhxdu.ttf?t=1630033759944") format("truetype"); }
</style></defs><path d="M960 786.75L854.63 681.37a32 32 0 0 0-45.25 45.25L914.75 832h-805.5l118.63-118.63A95.37 95.37 0 0 0 256 645.49V416a256.05 256.05 0 0 1 392.66-216.52 256.89 256.89 0 0 1 92.75 102.76 32 32 0 0 0 57.31-28.48A320.28 320.28 0 0 0 608 110.69V96a96 96 0 0 0-192 0v14.6A320.44 320.44 0 0 0 192 416v229.49a31.79 31.79 0 0 1-9.37 22.63L64 786.75A64 64 0 0 0 109.25 896h214c14.87 72.94 79.51 128 156.78 128h64c77.27 0 141.92-55.06 156.78-128h214A64 64 0 0 0 960 786.75zM480 96a32 32 0 0 1 64 0v1.6Q528.11 96 512 96t-32 1.57V96z m64 864h-64a96.16 96.16 0 0 1-90.51-64h245A96.16 96.16 0 0 1 544 960z" p-id="1836" fill="currentColor"></path><path d="M768 416v64h-64a32 32 0 0 0 0 64h64v64a32 32 0 0 0 64 0v-64h64a32 32 0 0 0 0-64h-64v-64a32 32 0 0 0-64 0z" p-id="1837" fill="currentColor"></path></svg>