<?xml version="1.0" standalone="no"?><!DOCTYPE svg PUBLIC "-//W3C//DTD SVG 1.1//EN" "http://www.w3.org/Graphics/SVG/1.1/DTD/svg11.dtd"><svg t="1593098560389" class="icon" viewBox="0 0 1024 1024" version="1.1" xmlns="http://www.w3.org/2000/svg" p-id="8039" xmlns:xlink="http://www.w3.org/1999/xlink" width="2300" height="2300"><defs><style type="text/css"></style></defs><path d="M223.445572 323.855317a70 70.5 45 1 0 99.702057-99.702056 70 70.5 45 1 0-99.702057 99.702056Z" fill="currentColor" p-id="8040"></path><path d="M533.526038 475.707913l10.621451-19.665347c45.510807-84.260258 30.91683-189.519467-37.850012-258.286308-85.329404-85.329404-223.67626-85.329404-309.005663 0-85.330111 85.330111-85.329404 223.67626 0 309.005663 66.206408 66.206408 166.44233 82.385718 249.419189 42.379738l19.1831-9.24825 95.915499 95.9155c15.648273 15.648273 24.778436 31.67697 27.423015 48.69703 2.241528 14.432049-0.154149 26.848844-5.844237 40.786626a189.48 189.48 0 0 1-1.950908 4.585587c-0.370524 0.847114-1.549978 3.505835-1.687157 3.816963-0.263044 0.596798-0.499924 1.139149-0.712763 1.634831 2.787415 0.408708 7.908282-0.260215 19.111682-2.469217 15.65393-3.087228 22.965414-4.085663 33.294123-3.510785 16.225272 0.900854 30.793793 6.886513 42.785617 18.878336 11.992531 11.992531 17.978897 26.561759 18.879751 42.787032 0.573464 10.327295-0.424264 17.639486-3.511492 33.293415-2.776101 14.072839-3.120462 18.548118-1.949494 20.857529 1.398657-0.397394 3.172788-0.993485 5.8803-1.968585l3.396234-1.232487c1.485631-0.536694 2.689127-0.963787 3.897573-1.380273 13.9993-4.829539 25.392205-6.85045 38.779857-5.098947 16.841162 2.204052 32.469636 10.584681 47.04735 25.162395l62.104481 62.104482 53.042201-10.84914 11.902021-56.022656L533.525331 475.70862z m73.356672-11.496142l355.000131 355.000131a45 45 0 0 1 12.197592 41.171999l-15.63696 73.599917a45 45 0 0 1-35.000371 34.734499l-70.573499 14.434878a45 45 0 0 1-40.835417-12.268303l-67.81154-67.81154c-5.681603-5.681603-9.46321-7.709585-12.404775-8.094252-2.294562-0.30052-5.431994 0.255973-11.429674 2.324968-0.886712 0.306884-1.832821 0.642053-3.065307 1.088237-0.384666 0.138593-2.739332 0.994192-3.446439 1.24875-11.795955 4.25254-19.15128 6.134858-28.925617 6.057784-14.499932-0.114551-27.766669-5.835045-38.851982-16.920358-11.992531-11.992531-17.977483-26.561759-18.879044-42.786324-0.572756-10.328002 0.424264-17.639486 3.510785-33.294123 3.332594-16.89066 3.161474-19.953846 1.071974-22.043347-2.088793-2.088793-5.152687-2.259206-22.044054 1.071267-15.653223 3.087935-22.964707 4.084956-33.292709 3.512199C560.240532 794.335885 545.671304 788.350933 533.67948 776.35911c-11.091677-11.091677-16.752067-24.366193-16.332752-38.844204 0.284257-9.787772 2.546292-16.778937 7.499574-28.019814 0.183848-0.414365 1.333603-3.006618 1.646145-3.720796 0.549422-1.252286 0.973686-2.246478 1.347038-3.16006 1.938887-4.750343 2.3879-7.073189 2.105057-8.897524-0.515481-3.314209-3.323402-8.244865-10.56064-15.482103l-66.425611-66.425611C351.393009 651.404856 234.042982 628.367317 154.865407 549.189742c-108.761508-108.761508-108.761508-285.096969 0-393.858477 108.760094-108.760094 285.096969-108.761508 393.858477 0 82.197628 82.197628 103.667511 205.274513 58.158826 308.88192z" fill="currentColor" p-id="8041"></path></svg>