<?xml version="1.0" standalone="no"?><!DOCTYPE svg PUBLIC "-//W3C//DTD SVG 1.1//EN" "http://www.w3.org/Graphics/SVG/1.1/DTD/svg11.dtd"><svg t="1590999268590" class="icon" viewBox="0 0 1024 1024" version="1.1" xmlns="http://www.w3.org/2000/svg" p-id="3482" xmlns:xlink="http://www.w3.org/1999/xlink" width="200" height="200"><defs><style type="text/css"></style></defs><path d="M714.597743 926.07983 152.708496 926.07983c-50.968835 0-87.416955-41.932018-87.416955-93.445252L65.29154 364.100532c0-50.395784 36.449143-91.415013 87.416955-91.415013l561.889247 0c50.967812 0 97.43103 41.019229 97.43103 91.415013l0 121.939213c0 14.71412-11.94096 26.669406-26.669406 26.669406s-26.669406-11.955286-26.669406-26.669406L758.68996 364.100532c0-21.3564-22.177092-38.0762-44.092217-38.0762L152.708496 326.024332c-21.916149 0-34.079166 16.7198-34.079166 38.0762l0 468.533023c0 21.747303 12.891611 40.108486 34.079166 40.108486l561.889247 0c21.186532 0 44.092217-18.361183 44.092217-40.108486L758.68996 712.726627c0-14.739702 11.941983-26.669406 26.669406-26.669406s26.669406 11.929704 26.669406 26.669406l0 119.906927C812.028772 884.147812 765.565555 926.07983 714.597743 926.07983z" p-id="3483" fill="currentColor"></path><path d="M235.229954 832.243675c-43.611264 0-76.596516-35.706223-76.596516-79.618339L158.633439 526.041808c0-7.369851 5.963829-13.33368 13.334703-13.33368 7.357572 0 13.334703 5.963829 13.334703 13.33368l0 226.583528c0 29.195949 21.017686 52.947909 49.927109 52.947909 7.357572 0 13.334703 5.963829 13.334703 13.334703S242.586502 832.243675 235.229954 832.243675z" p-id="3484" fill="currentColor"></path><path d="M300.300972 832.737932l-13.334703 0c-7.357572 0-13.334703-5.963829-13.334703-13.332656 0-7.370875 5.977132-13.334703 13.334703-13.334703l13.334703 0c7.370875 0 13.334703 5.963829 13.334703 13.334703C313.635675 826.774103 307.671846 832.737932 300.300972 832.737932z" p-id="3485" fill="currentColor"></path><path d="M958.70846 633.630175c0 51.04763-41.383526 92.431156-92.430132 92.431156L677.770999 726.06133c-51.046606 0-92.430132-41.383526-92.430132-92.431156l0-55.160297c0-51.046606 41.383526-92.431156 92.430132-92.431156l188.507328 0c51.046606 0 92.430132 41.383526 92.430132 92.431156L958.70846 633.630175zM905.369647 578.469877c0-21.591761-17.500583-39.093367-39.09132-39.093367L677.770999 539.376511c-21.590737 0-39.09132 17.502629-39.09132 39.093367l0 55.160297c0 21.591761 17.501606 39.093367 39.09132 39.093367l188.507328 0c21.591761 0 39.09132-17.502629 39.09132-39.093367L905.369647 578.469877z" p-id="3486" fill="currentColor"></path><path d="M731.474109 605.033883c0 14.116509-11.460006 25.576515-25.562189 25.576515-14.116509 0-25.562189-11.460006-25.562189-25.576515s11.446703-25.548886 25.562189-25.548886C720.014102 579.484997 731.474109 590.917374 731.474109 605.033883z" p-id="3487" fill="currentColor"></path><path d="M650.346393 320.007291c-14.728446 0-26.669406-11.927657-26.669406-26.669406 0-79.037101-64.303538-143.340639-143.347802-143.340639-79.056544 0-143.359059 64.303538-143.359059 143.340639 0 14.740726-11.94096 26.669406-26.669406 26.669406s-26.669406-11.927657-26.669406-26.669406c0-108.441804 88.237647-196.679451 196.697871-196.679451 108.448968 0 196.685591 88.237647 196.685591 196.679451C677.015799 308.079634 665.074839 320.007291 650.346393 320.007291z" p-id="3488" fill="currentColor"></path></svg>