<?xml version="1.0" standalone="no"?><!DOCTYPE svg PUBLIC "-//W3C//DTD SVG 1.1//EN" "http://www.w3.org/Graphics/SVG/1.1/DTD/svg11.dtd"><svg t="1669865361126" class="icon" viewBox="0 0 1024 1024" version="1.1" xmlns="http://www.w3.org/2000/svg" p-id="2773" xmlns:xlink="http://www.w3.org/1999/xlink" width="200" height="200"><path d="M610.142714 920.43334c-7.26604 0-14.327404-3.479512-18.727963-9.51749l-0.102339-0.204677L439.03258 667.861683c-0.102339-0.102339-0.204677-0.204677-0.307016-0.204677l-310.392964-22.719168-0.307016 0c-9.51749-1.228063-17.397561-8.289426-19.649011-17.704577-2.251449-9.210474 1.535079-19.034979 9.312812-24.458925l677.788527-429.515091 0.102339-0.102339c6.140316-4.093544 13.815711-5.219268 20.672397-2.763142 11.359584 4.195882 17.397561 15.453128 15.043774 26.608035l-198.536878 705.010594c-1.944433 8.903458-8.903458 15.964821-17.806916 17.909254C613.315211 920.228663 611.677793 920.43334 610.142714 920.43334zM191.78253 605.946832l261.679792 17.909254c0 0 0 0 0.102339 0l0.102339 0c6.447332 0.818709 12.280632 4.298221 16.06716 9.51749l0 0c0 0 0 0 0 0L598.680792 843.88407l177.762143-602.46732" p-id="2774" fill="currentColor"></path></svg>