<?xml version="1.0" standalone="no"?><!DOCTYPE svg PUBLIC "-//W3C//DTD SVG 1.1//EN" "http://www.w3.org/Graphics/SVG/1.1/DTD/svg11.dtd"><svg t="1655304843565" class="icon" viewBox="0 0 1024 1024" version="1.1" xmlns="http://www.w3.org/2000/svg" p-id="2169" xmlns:xlink="http://www.w3.org/1999/xlink" width="200" height="200"><defs><style type="text/css">@font-face { font-family: feedback-iconfont; src: url("//at.alicdn.com/t/font_1031158_u69w8yhxdu.woff2?t=1630033759944") format("woff2"), url("//at.alicdn.com/t/font_1031158_u69w8yhxdu.woff?t=1630033759944") format("woff"), url("//at.alicdn.com/t/font_1031158_u69w8yhxdu.ttf?t=1630033759944") format("truetype"); }
</style></defs><path d="M324.576 786.272l0-109.728q0-8-5.152-13.152t-13.152-5.152l-182.848 0q-8 0-13.152 5.152t-5.152 13.152l0 109.728q0 8 5.152 13.152t13.152 5.152l182.848 0q8 0 13.152-5.152t5.152-13.152zM324.576 566.848l0-109.728q0-8-5.152-13.152t-13.152-5.152l-182.848 0q-8 0-13.152 5.152t-5.152 13.152l0 109.728q0 8 5.152 13.152t13.152 5.152l182.848 0q8 0 13.152-5.152t5.152-13.152zM617.152 786.272l0-109.728q0-8-5.152-13.152t-13.152-5.152l-182.848 0q-8 0-13.152 5.152t-5.152 13.152l0 109.728q0 8 5.152 13.152t13.152 5.152l182.848 0q8 0 13.152-5.152t5.152-13.152zM324.576 347.424l0-109.728q0-8-5.152-13.152t-13.152-5.152l-182.848 0q-8 0-13.152 5.152t-5.152 13.152l0 109.728q0 8 5.152 13.152t13.152 5.152l182.848 0q8 0 13.152-5.152t5.152-13.152zM617.152 566.848l0-109.728q0-8-5.152-13.152t-13.152-5.152l-182.848 0q-8 0-13.152 5.152t-5.152 13.152l0 109.728q0 8 5.152 13.152t13.152 5.152l182.848 0q8 0 13.152-5.152t5.152-13.152zM909.728 786.272l0-109.728q0-8-5.152-13.152t-13.152-5.152l-182.848 0q-8 0-13.152 5.152t-5.152 13.152l0 109.728q0 8 5.152 13.152t13.152 5.152l182.848 0q8 0 13.152-5.152t5.152-13.152zM617.152 347.424l0-109.728q0-8-5.152-13.152t-13.152-5.152l-182.848 0q-8 0-13.152 5.152t-5.152 13.152l0 109.728q0 8 5.152 13.152t13.152 5.152l182.848 0q8 0 13.152-5.152t5.152-13.152zM909.728 566.848l0-109.728q0-8-5.152-13.152t-13.152-5.152l-182.848 0q-8 0-13.152 5.152t-5.152 13.152l0 109.728q0 8 5.152 13.152t13.152 5.152l182.848 0q8 0 13.152-5.152t5.152-13.152zM909.728 347.424l0-109.728q0-8-5.152-13.152t-13.152-5.152l-182.848 0q-8 0-13.152 5.152t-5.152 13.152l0 109.728q0 8 5.152 13.152t13.152 5.152l182.848 0q8 0 13.152-5.152t5.152-13.152zM982.848 164.576l0 621.728q0 37.728-26.848 64.576t-64.576 26.848l-768 0q-37.728 0-64.576-26.848t-26.848-64.576l0-621.728q0-37.728 26.848-64.576t64.576-26.848l768 0q37.728 0 64.576 26.848t26.848 64.576z" p-id="2170" fill="currentColor"></path></svg>