<?xml version="1.0" standalone="no"?><!DOCTYPE svg PUBLIC "-//W3C//DTD SVG 1.1//EN" "http://www.w3.org/Graphics/SVG/1.1/DTD/svg11.dtd"><svg t="1578759663039" class="icon" viewBox="0 0 1024 1024" version="1.1" xmlns="http://www.w3.org/2000/svg" p-id="5096" xmlns:xlink="http://www.w3.org/1999/xlink" width="200" height="200"><defs><style type="text/css"></style></defs><path d="M696.083 681.667c-189.018-74.666-221.584-106.328-227.195-114.873v-22.333c21.246-24.336 37.761-55.629 48.458-91.419 13.618-12.13 22.706-29.088 25.301-47.606 2.541-19.062-1.614-37.868-12.002-53.786v-71.628c0-100.198-60.51-157.65-166.111-157.65-104.089 0-166.164 58.933-166.164 157.65v71.655c-10.281 15.918-14.543 34.698-11.842 53.759 2.541 18.492 11.586 35.425 25.247 47.58 10.591 35.816 27.212 67.11 48.406 91.473v22.332c-6.287 9.872-40.777 41.139-227.249 114.847-17.506 6.987-28.827 23.87-28.827 43.086v87.627c0 25.48 20.26 46.205 45.247 46.205h630.377c24.98 0 45.24-20.725 45.24-46.205v-87.627c-0.001-18.935-11.582-36.254-28.886-43.087zM682.53 812.38c0 2.184-1.507 3.692-2.803 3.692H49.351c-1.301 0-2.814-1.509-2.814-3.692l2.031-91.159c209.279-82.745 245.377-118.014 253.22-143.75 0.574-1.998 0.83-4.103 0.83-6.207v-35.012c0-5.504-1.971-10.752-5.816-14.727-20.517-21.45-36.408-51.318-45.913-86.352-1.354-4.702-4.208-8.833-8.162-11.663-7.628-5.506-12.775-14.232-14.128-23.92-1.347-10.026 1.301-19.919 7.693-27.895a21.406 21.406 0 0 0 4.571-13.218v-78.458c0-75.319 42.748-115.131 123.672-115.131 82.022 0 123.629 38.72 123.629 115.131v78.432c0 4.805 1.662 9.457 4.618 13.244 6.334 7.975 9.094 17.868 7.688 27.895-1.354 9.712-6.441 18.438-14.128 23.92-3.949 2.856-6.809 6.96-8.056 11.663-9.604 35.033-25.498 64.901-45.966 86.379a21.288 21.288 0 0 0-5.923 14.699v35.012c0 2.104 0.265 4.209 0.937 6.207 7.843 25.789 43.941 61.084 255.197 147.282v87.628z" fill="currentColor" p-id="5097"></path><path d="M998.236 713.353c-141.7-54.724-169.696-78.745-174.997-84.952v-13.559c16.207-18.672 28.886-42.278 37.298-69.107 11.012-10.08 18.331-23.867 20.361-38.906 2.126-15.271-1.146-30.388-9.296-43.321v-53.319c0-78.772-50.389-125.803-134.796-125.803-84.457 0-134.839 47.031-134.839 125.803v53.37c-8.107 12.882-11.38 27.975-9.248 43.217 2.024 15.012 9.35 28.83 20.361 38.959 9.35 30.1 24.357 56.173 43.425 75.68 8.209 8.389 21.708 8.569 30.02 0.338 8.417-8.232 8.577-21.662 0.416-30.05-15.524-15.841-27.629-37.998-34.905-64.044a21.107 21.107 0 0 0-8.151-11.635 21.877 21.877 0 0 1-9.089-15.066c-0.884-6.153 0.932-12.309 4.88-17.218a21.189 21.189 0 0 0 4.826-13.452v-60.099c0-54.49 31.901-83.29 92.305-83.29 61.244 0 92.304 28.022 92.304 83.29v60.099c0 4.88 1.715 9.659 4.73 13.425 4.05 4.96 5.87 11.118 5.04 17.298-0.885 6.079-4.156 11.531-9.046 14.986-3.996 2.829-6.957 6.934-8.258 11.662-7.32 26.046-19.317 48.203-34.745 64.068-4.002 3.947-6.128 9.302-6.128 14.832v26.855c0 2.152 0.31 4.256 0.981 6.307 6.029 19.585 27.116 46.079 199.822 111.342l2.344 65.01H789.165c-11.785 0-21.247 9.503-21.247 21.267 0 11.742 9.462 21.246 21.247 21.246h194.687c22.125 0 40.148-18.13 40.148-40.389v-67.134c0-16.598-10.283-31.738-25.764-37.71z" fill="currentColor" p-id="5098"></path></svg>