<?xml version="1.0" standalone="no"?><!DOCTYPE svg PUBLIC "-//W3C//DTD SVG 1.1//EN" "http://www.w3.org/Graphics/SVG/1.1/DTD/svg11.dtd"><svg t="1663579849855" class="icon" viewBox="0 0 1024 1024" version="1.1" xmlns="http://www.w3.org/2000/svg" p-id="2232" xmlns:xlink="http://www.w3.org/1999/xlink" width="200" height="200"><path d="M369.178947 614.4c5.389474-8.084211 8.084211-16.168421 10.778948-21.557895 5.389474-2.694737 10.778947-8.084211 16.168421-16.168421 16.168421-21.557895 5.389474-37.726316 0-48.505263 2.694737-13.473684 5.389474-29.642105 5.389473-48.505263-2.694737-26.947368-26.947368-70.063158-88.926315-70.063158-59.284211 0-86.231579 35.031579-88.926316 70.063158 0 18.863158 2.694737 35.031579 5.389474 48.505263-5.389474 10.778947-13.473684 26.947368 0 48.505263 5.389474 10.778947 13.473684 16.168421 16.168421 16.168421 2.694737 8.084211 5.389474 13.473684 8.08421 18.863158l2.694737 2.694737v2.694737s0 2.694737 0 0v5.389474s-16.168421 21.557895-53.894737 29.642105c-35.031579 8.084211-72.757895 16.168421-72.757895 70.063158 0 10.778947 10.778947 24.252632 24.252632 24.252631h312.589474c13.473684 0 24.252632-10.778947 24.252631-24.252631 0-53.894737-37.726316-61.978947-72.757894-70.063158-37.726316-8.084211-53.894737-29.642105-53.894737-29.642105v-8.084211m-196.71579 99.705263c2.694737-10.778947 13.473684-13.473684 43.11579-21.557895 51.2-10.778947 72.757895-40.421053 75.452631-43.115789 8.084211-10.778947 8.084211-21.557895 8.084211-29.642105 0-5.389474-2.694737-10.778947-2.694737-16.168421v-2.694737c0-2.694737-2.694737-2.694737-2.694737-5.389474-2.694737-2.694737-5.389474-8.084211-5.389474-13.473684-2.694737-5.389474-8.084211-13.473684-10.778947-16.168421l-2.694737-2.694737c-2.694737-2.694737-5.389474-2.694737-8.08421-8.084211-2.694737-2.694737-2.694737-2.694737 2.694737-13.473684V538.947368c2.694737-2.694737 2.694737-10.778947 0-16.168421-2.694737-10.778947-5.389474-24.252632-5.389474-40.421052 0-13.473684 13.473684-35.031579 51.2-35.031579 40.421053 0 51.2 24.252632 51.2 35.031579 0 16.168421-2.694737 29.642105-5.389474 43.115789 0 5.389474 0 10.778947 2.694737 16.168421l2.694737 5.389474c0 2.694737 2.694737 5.389474 2.694737 8.08421l-8.084211 8.084211-2.694737 2.694737c-2.694737 2.694737-8.084211 10.778947-10.778947 16.168421 0 5.389474-5.389474 13.473684-8.084211 16.168421l-2.694736 5.389474c0 2.694737-5.389474 8.084211-5.389474 16.168421s0 18.863158 8.08421 29.642105c2.694737 2.694737 24.252632 32.336842 75.452632 43.115789 29.642105 5.389474 37.726316 10.778947 43.115789 21.557895H167.073684z" fill="#1296db" p-id="2233"></path><path d="M929.684211 137.431579h-835.368422c-32.336842 0-59.284211 26.947368-59.28421 59.28421v633.263158c0 32.336842 26.947368 59.284211 59.28421 59.284211h835.368422c32.336842 0 59.284211-26.947368 59.28421-59.284211V196.715789c0-32.336842-26.947368-59.284211-59.28421-59.28421z m-835.368422 37.726316h835.368422c10.778947 0 21.557895 10.778947 21.557894 21.557894v88.926316H72.757895V196.715789c0-13.473684 10.778947-21.557895 21.557894-21.557894z m835.368422 673.68421h-835.368422c-10.778947 0-21.557895-10.778947-21.557894-21.557894V320.673684h878.48421v506.610527c0 13.473684-10.778947 21.557895-21.557894 21.557894z" fill="#1296db" p-id="2234"></path><path d="M889.263158 441.936842H603.621053c-10.778947 0-18.863158 8.084211-18.863158 18.863158s8.084211 18.863158 18.863158 18.863158H889.263158c10.778947 0 18.863158-8.084211 18.863158-18.863158s-8.084211-18.863158-18.863158-18.863158zM889.263158 563.2H603.621053c-10.778947 0-18.863158 8.084211-18.863158 18.863158s8.084211 18.863158 18.863158 18.863158H889.263158c10.778947 0 18.863158-8.084211 18.863158-18.863158s-8.084211-18.863158-18.863158-18.863158zM889.263158 681.768421H603.621053c-10.778947 0-18.863158 8.084211-18.863158 18.863158s8.084211 18.863158 18.863158 18.863158H889.263158c10.778947 0 18.863158-8.084211 18.863158-18.863158s-8.084211-18.863158-18.863158-18.863158zM129.347368 250.610526h53.894737c10.778947 0 18.863158-8.084211 18.863158-18.863158s-5.389474-18.863158-16.168421-18.863157h-53.894737c-10.778947 0-18.863158 8.084211-18.863158 18.863157s5.389474 18.863158 16.168421 18.863158zM264.084211 250.610526h53.894736c10.778947 0 18.863158-8.084211 18.863158-18.863158s-8.084211-18.863158-18.863158-18.863157h-53.894736c-10.778947 0-18.863158 8.084211-18.863158 18.863157s8.084211 18.863158 18.863158 18.863158z" fill="#1296db" p-id="2235"></path></svg>