<?xml version="1.0" standalone="no"?><!DOCTYPE svg PUBLIC "-//W3C//DTD SVG 1.1//EN" "http://www.w3.org/Graphics/SVG/1.1/DTD/svg11.dtd"><svg t="1648455511866" class="icon" viewBox="0 0 1280 1024" version="1.1" xmlns="http://www.w3.org/2000/svg" p-id="1250" xmlns:xlink="http://www.w3.org/1999/xlink" width="250" height="200"><defs><style type="text/css"></style></defs><path d="M289.024 303.36c-34.368 0-62.272-27.072-62.272-60.352s27.904-60.16 62.272-60.16c34.368 0 62.272 26.88 62.272 60.16s-27.904 60.288-62.272 60.288m308.48-120.512c34.368 0 62.208 26.944 62.208 60.224s-27.84 60.288-62.208 60.288c-34.368 0-62.208-27.008-62.208-60.288s27.84-60.16 62.208-60.16M862.72 313.6c6.272 0 12.48 0.064 18.688 0.448C848.768 136.128 664.96 0 443.264 0 198.464 0 0 165.952 0 370.688c0 120.064 68.224 226.816 174.016 294.528 1.28 0.896 4.032 2.56 4.032 2.56l-42.816 134.144 160.256-81.6 7.552 2.176a523.392 523.392 0 0 0 170.048 17.984 287.488 287.488 0 0 1-14.08-88.384c0-187.008 180.8-338.496 403.712-338.496" fill="currentColor" p-id="1251"></path><path d="M683.136 546.368c0-28.096 23.616-50.88 52.608-50.88a51.84 51.84 0 0 1 52.672 50.88 51.84 51.84 0 0 1-52.672 51.008 51.84 51.84 0 0 1-52.608-51.008m260.672 0c0-28.096 23.488-50.88 52.544-50.88 29.056 0 52.608 22.784 52.608 50.88a51.84 51.84 0 0 1-52.608 51.008 51.84 51.84 0 0 1-52.544-51.008M491.52 654.272c0 172.992 167.68 313.216 374.528 313.216a440.32 440.32 0 0 0 124.8-17.92l135.36 69.056-36.16-113.408 3.456-2.112c89.28-57.216 146.944-147.392 146.944-248.832 0-172.928-167.68-313.152-374.4-313.152-206.848 0-374.528 140.16-374.528 313.152" fill="currentColor" p-id="1252"></path></svg>